<?xml version="1.0" encoding="UTF-8"?>
<svg viewBox="0 0 64 64" xmlns="http://www.w3.org/2000/svg">
 <g transform="translate(-443.65 -860.68)">
  <path transform="matrix(.6 0 0 .6 451.05 782.78)" d="m22 200.5c-2.4853 0-4.5-2.0147-4.5-4.5 0-2.0367 1.368-3.8195 3.3353-4.3467" fill="none" stroke="#666" stroke-linecap="square" stroke-width="5"/>
  <path d="m495.45 903.08h-31.2" fill="none" stroke="#666" stroke-width="3"/>
  <path d="m494.25 894.68-30 3.6-4.8-21-1.2-3.6h-2.7l-0.3-2h6l1.2 5h33z" fill="none" stroke="#666" stroke-width="2"/>
  <path transform="matrix(.1836 0 0 .1836 465.76 855.89)" d="m17.919 296.26c0 2.7073-2.1947 4.9021-4.9021 4.9021s-4.9021-2.1947-4.9021-4.9021 2.1947-4.9021 4.9021-4.9021 4.9021 2.1947 4.9021 4.9021z" fill="#666"/>
  <path transform="matrix(.1836 0 0 .1836 465.76 855.89)" d="m27.723 296.26c0 8.122-6.5842 14.706-14.706 14.706s-14.706-6.5842-14.706-14.706 6.5842-14.706 14.706-14.706 14.706 6.5842 14.706 14.706z" fill="none" stroke="#666" stroke-width="9.8042"/>
  <path transform="matrix(.1836 0 0 .1836 487.36 855.89)" d="m17.919 296.26c0 2.7073-2.1947 4.9021-4.9021 4.9021s-4.9021-2.1947-4.9021-4.9021 2.1947-4.9021 4.9021-4.9021 4.9021 2.1947 4.9021 4.9021z" fill="#666"/>
  <path transform="matrix(.1836 0 0 .1836 487.36 855.89)" d="m27.723 296.26c0 8.122-6.5842 14.706-14.706 14.706s-14.706-6.5842-14.706-14.706 6.5842-14.706 14.706-14.706 14.706 6.5842 14.706 14.706z" fill="none" stroke="#666" stroke-width="9.8042"/>
  <path d="m478.05 873.38-13.8 23.4" fill="none" stroke="#666" stroke-width="1.25"/>
  <path d="m460.35 880.18h34.2" fill="none" stroke="#666"/>
  <path d="m494.25 884.18h-33.3" fill="none" stroke="#666"/>
  <path d="m462.15 888.18h31.8" fill="none" stroke="#666"/>
  <path d="m493.95 892.18h-31.2" fill="none" stroke="#666"/>
  <path d="m463.35 896.18h18.1" fill="none" stroke="#666"/>
  <path d="m488.15 876.68v18.6" fill="none" stroke="#666"/>
  <path d="m484.15 876.68v19.2" fill="none" stroke="#666"/>
  <path d="m480.15 876.68v19.2" fill="none" stroke="#666"/>
  <path d="m476.15 876.68v19.8" fill="none" stroke="#666"/>
  <path d="m472.15 876.68v20.1" fill="none" stroke="#666"/>
  <path d="m468.15 876.68v20.4" fill="none" stroke="#666"/>
  <path d="m464.15 876.68v18.3" fill="none" stroke="#666"/>
  <path d="m492.15 876.68v17.4" fill="none" stroke="#666"/>
 </g>
</svg>
