<?xml version="1.0" encoding="utf-8"?>
<!-- Generator: Adobe Illustrator 21.1.0, SVG Export Plug-In . SVG Version: 6.00 Build 0)  -->
<svg version="1.1" xmlns="http://www.w3.org/2000/svg" xmlns:xlink="http://www.w3.org/1999/xlink" x="0px" y="0px"
	 viewBox="0 0 300 300" style="enable-background:new 0 0 300 300;" xml:space="preserve">
<style type="text/css">
	.st0{display:none;}
	.st1{display:inline;}
	.st2{fill:#010300;}
</style>
<g id="Слой_1" class="st0">
	<g class="st1">
		<path d="M262.9,130l-78.5,0c-13.6,0-24.6-11.1-24.6-24.6l0-78.5c0-13.6,11.1-24.6,24.6-24.6l78.5,0c13.6,0,24.6,11.1,24.6,24.6
			l0,78.5C287.5,118.9,276.4,130,262.9,130z M184.3,20.6c-3.4,0-6.2,2.8-6.2,6.2l0,78.5c0,3.4,2.8,6.2,6.2,6.2l78.5,0
			c3.4,0,6.2-2.8,6.2-6.2l0-78.5c0-3.4-2.8-6.2-6.2-6.2L184.3,20.6z"/>
		<path d="M178.7,167.6c-3.1-10.8-13.6-14.5-24.4-13.8c-2.8-5.3-6.7-8.3-9.9-10c-6-3.2-12.4-3.3-17.3-2.7c-1.9-2.6-4.3-4.6-7.2-6.2
			c-4.3-2.3-9-3-13.2-3l0-38.9c0-14.9-12.1-27-27-27h-3.6c-14.9,0-27,12.1-27,27l0,68.6c-22.7,9.8-33.9,36.8-27.5,68.2
			c7.2,35.5,36.1,68.5,78.6,68.5c3.8,0,7.7-0.3,11.8-0.8c26.8-3.7,46.6-15.4,58.8-34.7C190.8,231.3,184.7,186.9,178.7,167.6z
			 M155.3,252.9c-9.2,14.6-24.6,23.4-45.7,26.3c-39.4,5.4-63.8-23.7-69.7-53.1c-3.2-15.7-1.1-32.8,8.9-42.5
			c4.7-5.8,11.3-9.9,18.9-11.5l0-79.2c0-4.7,3.8-8.5,8.5-8.5h3.6c4.7,0,8.5,3.8,8.5,8.5l0,57.5c5-5.8,14.6-5.1,14.6-5.1
			c6.9,0,12.6,5.7,12.6,12.6l0,0c4.6-3.2,7.4-2.8,12.2-2.8c7.2,0,13.3,4.5,15.8,10.8c1.8-1.3,4-2.1,6.4-2.1c5.3,0,9.8,3.8,10.8,8.8
			c0.1,0,0.2,0.1,0.3,0.1l0.1,0.2C165.2,186.2,172.2,226.1,155.3,252.9z"/>
		<path d="M113.7,2.2l-78.5,0c-13.6,0-24.6,11.1-24.6,24.6l0,78.5c0,13.6,11.1,24.6,24.6,24.6l32.3,0l0-18.5l-32.3,0
			c-3.4,0-6.2-2.8-6.2-6.2l0-78.5c0-3.4,2.8-6.2,6.2-6.2l78.5,0c3.4,0,6.2,2.8,6.2,6.2l0,78.5c0,3.4-2.8,6.2-6.2,6.2l-25.4,0l0,18.5
			l25.4,0c13.6,0,24.6-11.1,24.6-24.6l0-78.5C138.3,13.2,127.3,2.2,113.7,2.2z"/>
		<rect x="49.2" y="141.3" width="18.5" height="70.4"/>
	</g>
</g>
<g id="Слой_2" class="st0">
	<g class="st1">
		<rect x="203.9" y="178.6" width="20.8" height="82.2"/>
		<path d="M212.2,299.1c-45.2,0-82.1-36.8-82.1-82S167,135,212.2,135s82.1,36.8,82.1,82.1S257.5,299.1,212.2,299.1z M212.2,155.8
			c-33.8,0-61.3,27.5-61.3,61.3s27.5,61.3,61.3,61.3s61.3-27.5,61.3-61.3S246,155.8,212.2,155.8z"/>
		<rect x="173.2" y="209.3" width="82.2" height="20.8"/>
		<g>
			<path d="M44.5,253.1V22.5h143.6L167.3,1.8H23.7v272.1h128.8c-5.8-6.1-10.6-13.1-14.3-20.8H44.5z"/>
			<path d="M237.3,71.8l-18.9-18.9v83c7.2,0.5,14.2,2,20.8,4.3V69.9L237.3,71.8z"/>
		</g>
		<path d="M167.2,1.8h-14.5v87.4h86.5v-19L167.2,1.8z M173.4,68.4v-32l33.7,32H173.4z"/>
	</g>
</g>
<g id="Слой_3" class="st0">
	<g class="st1">
		<path d="M28.5,155.3c-9.7-2.1-17.4-7.2-22.3-14.8c-1.9-3-3.1-6.3-3.6-9.5c-2.3-12.9,9.7-23.9,22.5-20.8h0l-0.1,0.6
			c-1.3,5.4-1.6,12.8,1.1,17.1c0.9,1.4,2.6,3.4,7.4,4.4L28.5,155.3z"/>
		<circle cx="226.4" cy="156.3" r="11.3"/>
		<path d="M218.1,286.2c-12.5,0-22.4-7.2-34.6-20.4h-49.8c-7.7,11.6-23.3,24.6-46.2,17.9l-1.2-0.4c-12.8-5.3-18.1-13.7-20.3-19.8
			c-3.1-8.5-2-17.3,0.2-24.5C42.2,224.4,13,190.7,29.5,137.2l0.5-1.4c0.4-0.9,42.6-90.1,166.9-65.2c0,0,61.1-29.9,62.6-25.5
			s-0.6,54.5-0.6,54.5l13.9,19.2l25.4,1.2v96.6h-26.8l-18.5,18.3c2.2,6.3,2.7,13.4,1.4,20.3c-2.2,11.2-9.1,20.9-19.5,27.3l-1,0.6
			l-1.2,0.4C227.3,285.3,222.6,286.2,218.1,286.2z M126.8,242.3H194l3.5,3.9c15.7,17.7,19.4,17.8,26,15.5c4.3-2.9,6.9-6.6,7.7-11
			c0.9-4.7-0.4-9-2-11.2l-6.1-8.2l38.7-38.3h13v-50.7l-14.3-0.7l-25.2-34.6c0,0,3.6-29.5,0.6-29.8s-35.8,18-35.8,18l-4.1-0.9
			C91.9,71.7,55.2,138,51.7,144.9c-16.8,56.2,32,76.8,34,77.7l12,4.9l-6.1,11.5c-3.5,6.6-4.8,12.8-3.5,16.6c0.3,0.9,1.2,3.5,6.6,5.8
			c13.6,3.6,20.1-9.2,21.2-11.9l3.1-7L126.8,242.3z"/>
		<path d="M91.2,95.7c3.1-2.2,5.3-3.7,5.5-3.8c0.5-0.1,13.7-2.9,25.6-5.4c-13.9-2.7-24.4-14.9-24.4-29.6c0-16.6,13.5-30.2,30.2-30.2
			s30.2,13.5,30.2,30.2c0,10.7-5.6,20-13.9,25.4c8.4,0.1,29.3,0.9,29.1,0.1c0-0.2,0.6-0.1,1.7,0.2c4.2-7.6,6.5-16.4,6.5-25.6
			c0-29.6-24.1-53.7-53.7-53.7c-29.6,0-53.7,24.1-53.7,53.7C74.4,72.1,80.9,85.9,91.2,95.7z"/>
	</g>
</g>
<g id="Слой_4">
	<g>
		<path d="M256.7,72.2H3.3V7.4h253.5V72.2z M24.1,51.4h211.8V28.2H24.1V51.4z"/>
		<rect x="58.2" y="103.4" width="19.7" height="19.7"/>
		<rect x="99.9" y="103.4" width="103.9" height="19.7"/>
		<rect x="58.2" y="145.4" width="19.7" height="19.7"/>
		<rect x="99.9" y="145.4" width="62.5" height="19.7"/>
		<path d="M136.4,292.8l-1.4-51.8l108.5-108.5c12.2-12.2,32.5-12,45,0.6c12.6,12.6,12.9,32.7,0.7,45L188.5,282.6L136.4,292.8z
			 M156.1,249.5l0.5,18.1l21.5-4.2l96.4-99.8c4.1-4.1,3.8-11.1-0.6-15.6c-4.5-4.5-11.5-4.8-15.6-0.6L156.1,249.5z"/>
		<polygon points="24.1,218 24.1,28.2 235.9,28.2 235.9,169.2 256.7,148.9 256.7,7.4 3.3,7.4 3.3,238.8 165.1,238.8 185.3,218 		"/>
	</g>
</g>
<g id="Слой_5" class="st0">
	<g class="st1">
		<path d="M150.2,298C69,298,2.9,232,2.9,150.8S69,3.5,150.2,3.5c81.2,0,147.3,66.1,147.3,147.3C297.5,232,231.4,298,150.2,298z
			 M150.2,24.1c-69.9,0-126.7,56.8-126.7,126.7c0,69.9,56.8,126.7,126.7,126.7s126.7-56.8,126.7-126.7S220.1,24.1,150.2,24.1z"/>
		<polygon points="139.1,217.5 78.1,158.1 92.5,143.4 139,188.6 225,103.1 239.5,117.7 		"/>
	</g>
</g>
<g id="Слой_6" class="st0">
	<g class="st1">
		<g>
			<path class="st2" d="M255.4,176.4c-12.3-21.4-30.7-39.1-51.9-51.7c-5.3-3.2-10.8-5.9-16.4-8.5c-5.6-2.6-11.4-4.6-17.3-6.4
				c-5.9-1.9-11.8-3.2-17.8-4.3c-6-1.1-12.1-1.8-18.1-2.2c-3-0.2-6.1-0.3-9.1-0.3c-3,0-6.1,0-9.1,0.2c-3,0.1-6,0.4-9,0.7
				c-3,0.4-6,0.7-8.9,1.3c-3,0.5-5.9,1.1-8.8,1.7c-2.9,0.7-5.8,1.5-8.6,2.3c-2.8,0.9-5.7,1.8-8.4,2.9c-2.8,1.1-5.5,2.2-8.2,3.4
				c-10.7,5-20.7,11.3-29.4,19.2c-4.3,3.9-8.2,8.3-11.7,13c-1.7,2.4-3.3,4.9-4.8,7.4c-0.7,1.3-1.5,2.6-2.1,4
				c-0.7,1.3-1.3,2.7-1.9,4.1l-0.1,0.2c-0.7,1.5-2.6,2.1-4.1,1.4c-1.2-0.6-1.8-1.9-1.7-3.1c0.4-3.3,1.1-6.6,2.1-9.8
				c1-3.2,2.2-6.4,3.7-9.4c3-6.1,6.9-11.7,11.4-16.7c9.1-10.1,20.4-17.7,32.5-23.3c6.1-2.8,12.3-5,18.7-6.8c3.2-0.8,6.4-1.6,9.7-2.2
				c1.6-0.3,3.2-0.6,4.9-0.8c0.8-0.1,1.6-0.3,2.4-0.4l2.4-0.3c3.3-0.4,6.5-0.6,9.8-0.9c3.3-0.1,6.5-0.3,9.8-0.2
				c3.3,0,6.5,0.3,9.8,0.4c3.2,0.3,6.5,0.6,9.7,1.1c6.4,0.9,12.8,2.1,19.1,3.8c6.3,1.7,12.4,3.6,18.4,5.9c1.5,0.5,3,1.1,4.5,1.8
				c1.5,0.6,3,1.2,4.4,1.9l4.4,2l4.3,2.1c5.7,2.9,11.3,6,16.7,9.5c21.6,13.7,40.2,32.1,53.8,54c0.9,1.4,0.5,3.3-1,4.2
				S256.3,178,255.4,176.4C255.4,176.5,255.4,176.5,255.4,176.4z"/>
		</g>
		<g>
			<path class="st2" d="M275.9,163.5c-1.5,2.8-2.6,5.8-3.3,8.9c-0.7,3.1-1,6.3-1,9.5c0,3.2,0.5,6.3,1.3,9.3c0.8,3,2,5.9,3.4,8.6
				c1.3,2.6,0.3,5.8-2.3,7.1c-1.5,0.8-3.2,0.8-4.6,0.1l-1.7-0.8l-8-3.8c-2.6-1.3-5.3-2.5-7.9-3.9c-2.6-1.3-5.1-2.8-7.6-4.5
				c-1.2-0.9-2.4-1.8-3.6-2.8c-0.6-0.5-1.2-1.1-1.7-1.6l-0.2-0.2c-0.1,0,0-0.1,0-0.1l0.1,0c0.1,0,0.2,0,0.5-0.1
				c0.2,0,0.6-0.1,1.1-0.3c0.5-0.2,1.2-0.7,1.5-1.3c0.2-0.3,0.3-0.6,0.4-1c0.1-0.4,0.1-0.9,0.1-1.3c-0.2-0.9-0.6-1.4-0.9-1.7
				c-0.6-0.5-0.9-0.6-1.7-0.8c-0.1,0-0.3,0-0.4,0c-0.1,0-0.2,0-0.5,0c-0.2,0-0.4,0.1-0.7,0.2c-0.3,0.1-0.6,0.3-0.9,0.6
				c-0.3,0.3-0.6,0.6-0.7,1c-0.1,0.3-0.2,0.6-0.2,0.9c0,0.4,0,0.4,0,0.6c0,0.2,0.1,0.3,0.1,0.5c-0.4-1.6,0.5-3.3,2.2-3.7
				c1.6-0.4,3.3,0.5,3.7,2.2c0.1,0.2,0.1,0.3,0.1,0.5c0,0.2,0,0.3,0,0.7c0,0.3-0.1,0.6-0.3,1c-0.2,0.4-0.5,0.8-0.8,1.1
				c-0.3,0.2-0.6,0.5-0.9,0.6c-0.3,0.1-0.5,0.2-0.7,0.2c-0.3,0-0.4,0-0.6,0.1c-0.1,0-0.3,0-0.4,0c-1-0.2-1.5-0.4-2.2-1
				c-0.4-0.4-0.8-0.9-1-1.9c-0.1-0.5-0.1-1,0.1-1.5c0.1-0.4,0.3-0.8,0.5-1.1c0.4-0.7,1.3-1.4,2-1.7c0.7-0.3,1.3-0.3,1.7-0.3
				c0.4,0,0.8,0,1,0c0.1,0,0.3,0,0.4,0.1c0.1,0,0.3,0,0.3,0l0.3,0c0.9,0,1.7,0,2.5,0c1.7,0.1,3.3,0.4,4.9,0.7c3.2,0.7,6.2,1.8,9,3.3
				c2.9,1.4,5.6,3.1,8.2,5c2.6,1.8,5.1,3.9,7.5,6l-8.6,6.5c-0.7-3.7-0.9-7.4-0.9-11c0-3.6,0.2-7.2,0.6-10.7c0.4-3.5,1.1-7,1.9-10.4
				c0.9-3.4,2-6.8,3.2-10.1l0,0c0.6-1.6,2.3-2.4,3.9-1.8c1.6,0.6,2.4,2.3,1.8,3.9C276,163.2,276,163.3,275.9,163.5z"/>
		</g>
	</g>
</g>
</svg>
