<?xml version="1.0" encoding="utf-8"?>
<!-- Generator: Adobe Illustrator 21.1.0, SVG Export Plug-In . SVG Version: 6.00 Build 0)  -->
<svg version="1.1" xmlns="http://www.w3.org/2000/svg" xmlns:xlink="http://www.w3.org/1999/xlink" x="0px" y="0px"
	 viewBox="0 0 600 300" style="enable-background:new 0 0 600 300;" xml:space="preserve">
<style type="text/css">
	.st0{display:none;}
	.st1{display:inline;}
	.st2{fill:#696969;}
	.st3{fill:#FFFFFF;}
</style>
<g id="Слой_1">
</g>
<g id="Слой_2" class="st0">
	<g class="st1">
		<path class="st2" d="M221.4,229.9v15.6h-17.6c1.9,3.1,3.1,6.8,3.1,10.7v8.8c0,6.4-5.2,11.7-11.7,11.7h-91.7
			c-6.4,0-11.7-5.2-11.7-11.7v-8.8c0-3.9,1.2-7.6,3.1-10.7H77.4v-15.6c-5.5,7.3-8.9,16.4-8.9,26.3v8.8c0,19.3,15.7,35,35,35h91.7
			c19.3,0,35-15.7,35-35v-8.8C230.3,246.3,226.9,237.2,221.4,229.9z"/>
		<path class="st2" d="M219.5,125.4l-19.4-13c14.4-21.7-25.9-49.7-26.3-50l13-19.4C209.3,58.2,241.5,92.4,219.5,125.4z"/>
		<path class="st2" d="M80,125.4c-22-33,10.2-67.3,32.7-82.3l13,19.4l-6.5-9.7l6.5,9.7c-0.4,0.3-40.7,28.3-26.3,50L80,125.4z"/>
		<path class="st2" d="M195.3,64.5h-91.7l-2.6-8.1c-1.1-3.3-1.6-6.8-1.6-10.3V33.4c0-18.3,14.7-33.2,32.8-33.2h34.6
			c18.1,0,32.8,14.9,32.8,33.2v12.8c0,3.5-0.5,6.9-1.6,10.3L195.3,64.5z M122.6,41.1h53.5v-7.7c0-5.4-4.2-9.8-9.5-9.8h-34.6
			c-5.2,0-9.5,4.4-9.5,9.8V41.1z"/>
		<path class="st2" d="M100.7,222.1V214c-9.4,2.6-17.6,8.3-23.4,15.9v15.6H95c1.5-2.4,6.7-5.2,9.7-6.2L100.7,222.1z"/>
		<path class="st2" d="M198,214v8.1l-1,17.2c3,1.1,5.2,3.8,6.7,6.2h17.6v-15.6C215.7,222.3,207.5,216.6,198,214z"/>
		<path class="st2" d="M77.4,107.3v122.6c5.8-7.6,13.9-13.3,23.4-15.9v-83.4h3.9v-23.4H77.4z"/>
		<path class="st2" d="M119.9,107.3v23.4H198V214c9.4,2.6,17.6,8.3,23.4,15.9V107.3H119.9z"/>
		<rect x="119.9" y="215.9" class="st2" width="89.8" height="23.4"/>
		<path class="st2" d="M77.4,239.3V116.7c5.8,7.6,17.8,11.4,27.3,14v85.3l0,0v23.4H77.4z"/>
	</g>
	<g class="st1">
		<path class="st3" d="M521.4,229.9v15.6h-17.6c1.9,3.1,3.1,6.8,3.1,10.7v8.8c0,6.4-5.2,11.7-11.7,11.7h-91.7
			c-6.4,0-11.7-5.2-11.7-11.7v-8.8c0-3.9,1.2-7.6,3.1-10.7h-17.6v-15.6c-5.5,7.3-8.9,16.4-8.9,26.3v8.8c0,19.3,15.7,35,35,35h91.7
			c19.3,0,35-15.7,35-35v-8.8C530.3,246.3,526.9,237.2,521.4,229.9z"/>
		<path class="st3" d="M519.5,125.4l-19.4-13c14.4-21.7-25.9-49.7-26.3-50l13-19.4C509.3,58.2,541.5,92.4,519.5,125.4z"/>
		<path class="st3" d="M380,125.4c-22-33,10.2-67.3,32.7-82.3l13,19.4l-6.5-9.7l6.5,9.7c-0.4,0.3-40.7,28.3-26.3,50L380,125.4z"/>
		<path class="st3" d="M495.3,64.5h-91.7l-2.6-8.1c-1.1-3.3-1.6-6.8-1.6-10.3V33.4c0-18.3,14.7-33.2,32.8-33.2h34.6
			c18.1,0,32.8,14.9,32.8,33.2v12.8c0,3.5-0.5,6.9-1.6,10.3L495.3,64.5z M422.6,41.1h53.5v-7.7c0-5.4-4.2-9.8-9.5-9.8h-34.6
			c-5.2,0-9.5,4.4-9.5,9.8V41.1z"/>
		<path class="st3" d="M400.7,222.1V214c-9.4,2.6-17.6,8.3-23.4,15.9v15.6H395c1.5-2.4,6.7-5.2,9.7-6.2L400.7,222.1z"/>
		<path class="st3" d="M498,214v8.1l-1,17.2c3,1.1,5.2,3.8,6.7,6.2h17.6v-15.6C515.7,222.3,507.5,216.6,498,214z"/>
		<path class="st3" d="M377.4,107.3v122.6c5.8-7.6,13.9-13.3,23.4-15.9v-83.4h3.9v-23.4H377.4z"/>
		<path class="st3" d="M419.9,107.3v23.4H498V214c9.4,2.6,17.6,8.3,23.4,15.9V107.3H419.9z"/>
		<rect x="419.9" y="215.9" class="st3" width="89.8" height="23.4"/>
		<path class="st3" d="M377.4,239.3V116.7c5.8,7.6,17.8,11.4,27.3,14v85.3l0,0v23.4H377.4z"/>
	</g>
</g>
<g id="Слой_3">
	<g>
		<g>
			<path class="st2" d="M149.6,294c-91.7-3.2-113.8-58.7-118.9-81.4C12.6,209.1,3,195.9,3,183.4c0-8.1,3.9-15.7,10.7-20.9
				c4.3-3.3,9.6-5.5,15.8-6.7c2.4-34.9,17.8-63.3,45.7-84.4C96.8,55.1,121,47.1,135.2,43c8.3-13.5,30.8-38.3,58.7-38.3v22
				c-19.5,0-38,22.8-41.2,30.1l-2.1,4.7l-4.9,1.4c-40.6,11.6-94.6,34.9-94.6,103v11h-11c-7.7,0-11.5,2-13.1,3.2
				c-1.4,1-2.1,2.2-2.1,3.4c0,3.2,4.8,8,15.1,8h10.5l0.5,10.5c0.2,2.7,5.1,66.9,99.3,70.1L149.6,294z"/>
			<path class="st2" d="M148.1,294l-0.8-22c94.2-3.2,99.1-67.5,99.3-70.2l0.6-10.3l10.4-0.1c10.7,0,15.5-4.3,15.5-7.3
				s-4.8-7.3-15.5-7.3h-11v-11c0-68.1-54-91.4-94.6-103l-3.1-0.9l-2.1-2.4c-0.1-0.2-16.9-18.3-39.4-18.3v-22
				c26.8,0,46.8,16.8,53.4,23.2c13.9,4,39.2,12,61.7,28.9c27.9,21.1,43.3,49.5,45.7,84.4c17.6,3.6,26.8,16,26.8,28.3
				c0,12.6-9.6,25.3-28,28.5C261.8,235.4,239.7,290.8,148.1,294z"/>
			<path class="st2" d="M219.2,97.4c-76.4-62.6-137.3-3.3-139.9-0.7L63.8,81.1c0.8-0.8,77.7-75.8,169.3-0.7L219.2,97.4z"/>
		</g>
		<g>
			<circle class="st2" cx="107.9" cy="160.3" r="14.7"/>
			<path class="st2" d="M107.9,180.5c-11.1,0-20.1-9-20.1-20.1c0-11.1,9-20.1,20.1-20.1s20.1,9,20.1,20.1
				C128,171.4,119,180.5,107.9,180.5z M107.9,151.2c-5,0-9.2,4.1-9.2,9.2c0,5.1,4.1,9.2,9.2,9.2s9.2-4.1,9.2-9.2
				C117,155.3,112.9,151.2,107.9,151.2z"/>
		</g>
		<g>
			<circle class="st2" cx="188.4" cy="160.3" r="14.7"/>
			<path class="st2" d="M188.4,180.5c-11.1,0-20.1-9-20.1-20.1c0-11.1,9-20.1,20.1-20.1s20.1,9,20.1,20.1
				C208.6,171.4,199.6,180.5,188.4,180.5z M188.4,151.2c-5,0-9.2,4.1-9.2,9.2c0,5.1,4.1,9.2,9.2,9.2c5,0,9.2-4.1,9.2-9.2
				C197.6,155.3,193.5,151.2,188.4,151.2z"/>
		</g>
		<path class="st2" d="M148.4,252.8c-0.3,0-0.7,0-1,0c-21-0.3-40.6-10.1-56.9-28.4l16.4-14.6c12,13.5,26.1,20.8,40.8,21
			c15.2,0.2,30.4-7.1,43.7-21.3l16,15.1C190,243.1,169.6,252.8,148.4,252.8z"/>
	</g>
	<g>
		<g>
			<path class="st3" d="M450.6,294c-91.7-3.2-113.8-58.7-118.9-81.4c-18-3.4-27.7-16.6-27.7-29.2c0-8.1,3.9-15.7,10.7-20.9
				c4.3-3.3,9.6-5.5,15.8-6.7c2.4-34.9,17.8-63.3,45.7-84.4C397.8,55.1,422,47.1,436.2,43c8.3-13.5,30.8-38.3,58.7-38.3v22
				c-19.5,0-38,22.8-41.2,30.1l-2.1,4.7l-4.9,1.4c-40.6,11.6-94.6,34.9-94.6,103v11h-11c-7.7,0-11.5,2-13.1,3.2
				c-1.4,1-2.1,2.2-2.1,3.4c0,3.2,4.8,8,15.1,8h10.5l0.5,10.5c0.2,2.7,5.1,66.9,99.3,70.1L450.6,294z"/>
			<path class="st3" d="M449.1,294l-0.8-22c94.2-3.2,99.1-67.5,99.3-70.2l0.6-10.3l10.4-0.1c10.7,0,15.5-4.3,15.5-7.3
				s-4.8-7.3-15.5-7.3h-11v-11c0-68.1-54-91.4-94.6-103l-3.1-0.9l-2.1-2.4c-0.1-0.2-16.9-18.3-39.4-18.3v-22
				c26.8,0,46.8,16.8,53.4,23.2c13.9,4,39.2,12,61.7,28.9c27.9,21.1,43.3,49.5,45.7,84.4c17.6,3.6,26.8,16,26.8,28.3
				c0,12.6-9.6,25.3-28,28.5C562.8,235.4,540.7,290.8,449.1,294z"/>
			<path class="st3" d="M520.2,97.4c-76.4-62.6-137.3-3.3-139.9-0.7l-15.5-15.5c0.8-0.8,77.7-75.8,169.3-0.7L520.2,97.4z"/>
		</g>
		<g>
			<circle class="st3" cx="408.9" cy="160.3" r="14.7"/>
			<path class="st3" d="M408.9,180.5c-11.1,0-20.1-9-20.1-20.1c0-11.1,9-20.1,20.1-20.1c11.1,0,20.1,9,20.1,20.1
				C429,171.4,420,180.5,408.9,180.5z M408.9,151.2c-5,0-9.2,4.1-9.2,9.2c0,5.1,4.1,9.2,9.2,9.2s9.2-4.1,9.2-9.2
				C418,155.3,413.9,151.2,408.9,151.2z"/>
		</g>
		<g>
			<circle class="st3" cx="489.4" cy="160.3" r="14.7"/>
			<path class="st3" d="M489.4,180.5c-11.1,0-20.1-9-20.1-20.1c0-11.1,9-20.1,20.1-20.1c11.1,0,20.1,9,20.1,20.1
				C509.6,171.4,500.6,180.5,489.4,180.5z M489.4,151.2c-5,0-9.2,4.1-9.2,9.2c0,5.1,4.1,9.2,9.2,9.2c5,0,9.2-4.1,9.2-9.2
				C498.6,155.3,494.5,151.2,489.4,151.2z"/>
		</g>
		<path class="st3" d="M449.4,252.8c-0.3,0-0.7,0-1,0c-21-0.3-40.6-10.1-56.9-28.4l16.4-14.6c12,13.5,26.1,20.8,40.8,21
			c15.2,0.2,30.4-7.1,43.7-21.3l16,15.1C491,243.1,470.6,252.8,449.4,252.8z"/>
	</g>
</g>
</svg>
