<?xml version="1.0" encoding="utf-8"?>
<!-- Generator: Adobe Illustrator 21.1.0, SVG Export Plug-In . SVG Version: 6.00 Build 0)  -->
<svg version="1.1" xmlns="http://www.w3.org/2000/svg" xmlns:xlink="http://www.w3.org/1999/xlink" x="0px" y="0px"
	 viewBox="0 0 600 300" style="enable-background:new 0 0 600 300;" xml:space="preserve">
<style type="text/css">
	.st0{fill:#696969;}
	.st1{fill:#FFFFFF;}
</style>
<g id="Слой_1">
</g>
<g id="Слой_2">
	<g>
		<path class="st0" d="M221.4,229.9v15.6h-17.6c1.9,3.1,3.1,6.8,3.1,10.7v8.8c0,6.4-5.2,11.7-11.7,11.7h-91.7
			c-6.4,0-11.7-5.2-11.7-11.7v-8.8c0-3.9,1.2-7.6,3.1-10.7H77.4v-15.6c-5.5,7.3-8.9,16.4-8.9,26.3v8.8c0,19.3,15.7,35,35,35h91.7
			c19.3,0,35-15.7,35-35v-8.8C230.3,246.3,226.9,237.2,221.4,229.9z"/>
		<path class="st0" d="M219.5,125.4l-19.4-13c14.4-21.7-25.9-49.7-26.3-50l13-19.4C209.3,58.2,241.5,92.4,219.5,125.4z"/>
		<path class="st0" d="M80,125.4c-22-33,10.2-67.3,32.7-82.3l13,19.4l-6.5-9.7l6.5,9.7c-0.4,0.3-40.7,28.3-26.3,50L80,125.4z"/>
		<path class="st0" d="M195.3,64.5h-91.7l-2.6-8.1c-1.1-3.3-1.6-6.8-1.6-10.3V33.4c0-18.3,14.7-33.2,32.8-33.2h34.6
			c18.1,0,32.8,14.9,32.8,33.2v12.8c0,3.5-0.5,6.9-1.6,10.3L195.3,64.5z M122.6,41.1h53.5v-7.7c0-5.4-4.2-9.8-9.5-9.8h-34.6
			c-5.2,0-9.5,4.4-9.5,9.8V41.1z"/>
		<path class="st0" d="M100.7,222.1V214c-9.4,2.6-17.6,8.3-23.4,15.9v15.6H95c1.5-2.4,6.7-5.2,9.7-6.2L100.7,222.1z"/>
		<path class="st0" d="M198,214v8.1l-1,17.2c3,1.1,5.2,3.8,6.7,6.2h17.6v-15.6C215.7,222.3,207.5,216.6,198,214z"/>
		<path class="st0" d="M77.4,107.3v122.6c5.8-7.6,13.9-13.3,23.4-15.9v-83.4h3.9v-23.4H77.4z"/>
		<path class="st0" d="M119.9,107.3v23.4H198V214c9.4,2.6,17.6,8.3,23.4,15.9V107.3H119.9z"/>
		<rect x="119.9" y="215.9" class="st0" width="89.8" height="23.4"/>
		<path class="st0" d="M77.4,239.3V116.7c5.8,7.6,17.8,11.4,27.3,14v85.3l0,0v23.4H77.4z"/>
	</g>
	<g>
		<path class="st1" d="M521.4,229.9v15.6h-17.6c1.9,3.1,3.1,6.8,3.1,10.7v8.8c0,6.4-5.2,11.7-11.7,11.7h-91.7
			c-6.4,0-11.7-5.2-11.7-11.7v-8.8c0-3.9,1.2-7.6,3.1-10.7h-17.6v-15.6c-5.5,7.3-8.9,16.4-8.9,26.3v8.8c0,19.3,15.7,35,35,35h91.7
			c19.3,0,35-15.7,35-35v-8.8C530.3,246.3,526.9,237.2,521.4,229.9z"/>
		<path class="st1" d="M519.5,125.4l-19.4-13c14.4-21.7-25.9-49.7-26.3-50l13-19.4C509.3,58.2,541.5,92.4,519.5,125.4z"/>
		<path class="st1" d="M380,125.4c-22-33,10.2-67.3,32.7-82.3l13,19.4l-6.5-9.7l6.5,9.7c-0.4,0.3-40.7,28.3-26.3,50L380,125.4z"/>
		<path class="st1" d="M495.3,64.5h-91.7l-2.6-8.1c-1.1-3.3-1.6-6.8-1.6-10.3V33.4c0-18.3,14.7-33.2,32.8-33.2h34.6
			c18.1,0,32.8,14.9,32.8,33.2v12.8c0,3.5-0.5,6.9-1.6,10.3L495.3,64.5z M422.6,41.1h53.5v-7.7c0-5.4-4.2-9.8-9.5-9.8h-34.6
			c-5.2,0-9.5,4.4-9.5,9.8V41.1z"/>
		<path class="st1" d="M400.7,222.1V214c-9.4,2.6-17.6,8.3-23.4,15.9v15.6H395c1.5-2.4,6.7-5.2,9.7-6.2L400.7,222.1z"/>
		<path class="st1" d="M498,214v8.1l-1,17.2c3,1.1,5.2,3.8,6.7,6.2h17.6v-15.6C515.7,222.3,507.5,216.6,498,214z"/>
		<path class="st1" d="M377.4,107.3v122.6c5.8-7.6,13.9-13.3,23.4-15.9v-83.4h3.9v-23.4H377.4z"/>
		<path class="st1" d="M419.9,107.3v23.4H498V214c9.4,2.6,17.6,8.3,23.4,15.9V107.3H419.9z"/>
		<rect x="419.9" y="215.9" class="st1" width="89.8" height="23.4"/>
		<path class="st1" d="M377.4,239.3V116.7c5.8,7.6,17.8,11.4,27.3,14v85.3l0,0v23.4H377.4z"/>
	</g>
</g>
</svg>
