<?xml version="1.0" encoding="utf-8"?>
<!-- Generator: Adobe Illustrator 21.1.0, SVG Export Plug-In . SVG Version: 6.00 Build 0)  -->
<svg version="1.1" xmlns="http://www.w3.org/2000/svg" xmlns:xlink="http://www.w3.org/1999/xlink" x="0px" y="0px"
	 viewBox="0 0 600 300" style="enable-background:new 0 0 600 300;" xml:space="preserve">
<style type="text/css">
	.st0{display:none;}
	.st1{display:inline;}
	.st2{fill:#696969;}
	.st3{fill:#FFFFFF;}
	.st4{fill:#696969;stroke:#000000;stroke-width:6;stroke-miterlimit:10;}
	.st5{fill:#FFFFFF;stroke:#000000;stroke-width:6;stroke-miterlimit:10;}
	.st6{fill:#696969;stroke:#000000;stroke-width:4;stroke-miterlimit:10;}
	.st7{fill:#FFFFFF;stroke:#000000;stroke-width:4;stroke-miterlimit:10;}
</style>
<g id="Слой_1">
</g>
<g id="bottle" class="st0">
	<g class="st1">
		<path class="st2" d="M221.4,229.9v15.6h-17.6c1.9,3.1,3.1,6.8,3.1,10.7v8.8c0,6.4-5.2,11.7-11.7,11.7h-91.7
			c-6.4,0-11.7-5.2-11.7-11.7v-8.8c0-3.9,1.2-7.6,3.1-10.7H77.4v-15.6c-5.5,7.3-8.9,16.4-8.9,26.3v8.8c0,19.3,15.7,35,35,35h91.7
			c19.3,0,35-15.7,35-35v-8.8C230.3,246.3,226.9,237.2,221.4,229.9z"/>
		<path class="st2" d="M219.5,125.4l-19.4-13c14.4-21.7-25.9-49.7-26.3-50l13-19.4C209.3,58.2,241.5,92.4,219.5,125.4z"/>
		<path class="st2" d="M80,125.4c-22-33,10.2-67.3,32.7-82.3l13,19.4l-6.5-9.7l6.5,9.7c-0.4,0.3-40.7,28.3-26.3,50L80,125.4z"/>
		<path class="st2" d="M195.3,64.5h-91.7l-2.6-8.1c-1.1-3.3-1.6-6.8-1.6-10.3V33.4c0-18.3,14.7-33.2,32.8-33.2h34.6
			c18.1,0,32.8,14.9,32.8,33.2v12.8c0,3.5-0.5,6.9-1.6,10.3L195.3,64.5z M122.6,41.1h53.5v-7.7c0-5.4-4.2-9.8-9.5-9.8h-34.6
			c-5.2,0-9.5,4.4-9.5,9.8V41.1z"/>
		<path class="st2" d="M100.7,222.1V214c-9.4,2.6-17.6,8.3-23.4,15.9v15.6H95c1.5-2.4,6.7-5.2,9.7-6.2L100.7,222.1z"/>
		<path class="st2" d="M198,214v8.1l-1,17.2c3,1.1,5.2,3.8,6.7,6.2h17.6v-15.6C215.7,222.3,207.5,216.6,198,214z"/>
		<path class="st2" d="M77.4,107.3v122.6c5.8-7.6,13.9-13.3,23.4-15.9v-83.4h3.9v-23.4H77.4z"/>
		<path class="st2" d="M119.9,107.3v23.4H198V214c9.4,2.6,17.6,8.3,23.4,15.9V107.3H119.9z"/>
		<rect x="119.9" y="215.9" class="st2" width="89.8" height="23.4"/>
		<path class="st2" d="M77.4,239.3V116.7c5.8,7.6,17.8,11.4,27.3,14v85.3l0,0v23.4H77.4z"/>
	</g>
	<g class="st1">
		<path class="st3" d="M521.4,229.9v15.6h-17.6c1.9,3.1,3.1,6.8,3.1,10.7v8.8c0,6.4-5.2,11.7-11.7,11.7h-91.7
			c-6.4,0-11.7-5.2-11.7-11.7v-8.8c0-3.9,1.2-7.6,3.1-10.7h-17.6v-15.6c-5.5,7.3-8.9,16.4-8.9,26.3v8.8c0,19.3,15.7,35,35,35h91.7
			c19.3,0,35-15.7,35-35v-8.8C530.3,246.3,526.9,237.2,521.4,229.9z"/>
		<path class="st3" d="M519.5,125.4l-19.4-13c14.4-21.7-25.9-49.7-26.3-50l13-19.4C509.3,58.2,541.5,92.4,519.5,125.4z"/>
		<path class="st3" d="M380,125.4c-22-33,10.2-67.3,32.7-82.3l13,19.4l-6.5-9.7l6.5,9.7c-0.4,0.3-40.7,28.3-26.3,50L380,125.4z"/>
		<path class="st3" d="M495.3,64.5h-91.7l-2.6-8.1c-1.1-3.3-1.6-6.8-1.6-10.3V33.4c0-18.3,14.7-33.2,32.8-33.2h34.6
			c18.1,0,32.8,14.9,32.8,33.2v12.8c0,3.5-0.5,6.9-1.6,10.3L495.3,64.5z M422.6,41.1h53.5v-7.7c0-5.4-4.2-9.8-9.5-9.8h-34.6
			c-5.2,0-9.5,4.4-9.5,9.8V41.1z"/>
		<path class="st3" d="M400.7,222.1V214c-9.4,2.6-17.6,8.3-23.4,15.9v15.6H395c1.5-2.4,6.7-5.2,9.7-6.2L400.7,222.1z"/>
		<path class="st3" d="M498,214v8.1l-1,17.2c3,1.1,5.2,3.8,6.7,6.2h17.6v-15.6C515.7,222.3,507.5,216.6,498,214z"/>
		<path class="st3" d="M377.4,107.3v122.6c5.8-7.6,13.9-13.3,23.4-15.9v-83.4h3.9v-23.4H377.4z"/>
		<path class="st3" d="M419.9,107.3v23.4H498V214c9.4,2.6,17.6,8.3,23.4,15.9V107.3H419.9z"/>
		<rect x="419.9" y="215.9" class="st3" width="89.8" height="23.4"/>
		<path class="st3" d="M377.4,239.3V116.7c5.8,7.6,17.8,11.4,27.3,14v85.3l0,0v23.4H377.4z"/>
	</g>
</g>
<g id="baby" class="st0">
	<g class="st1">
		<g>
			<path class="st2" d="M149.6,294c-91.7-3.2-113.8-58.7-118.9-81.4C12.6,209.1,3,195.9,3,183.4c0-8.1,3.9-15.7,10.7-20.9
				c4.3-3.3,9.6-5.5,15.8-6.7c2.4-34.9,17.8-63.3,45.7-84.4C96.8,55.1,121,47.1,135.2,43c8.3-13.5,30.8-38.3,58.7-38.3v22
				c-19.5,0-38,22.8-41.2,30.1l-2.1,4.7l-4.9,1.4c-40.6,11.6-94.6,34.9-94.6,103v11h-11c-7.7,0-11.5,2-13.1,3.2
				c-1.4,1-2.1,2.2-2.1,3.4c0,3.2,4.8,8,15.1,8h10.5l0.5,10.5c0.2,2.7,5.1,66.9,99.3,70.1L149.6,294z"/>
			<path class="st2" d="M148.1,294l-0.8-22c94.2-3.2,99.1-67.5,99.3-70.2l0.6-10.3l10.4-0.1c10.7,0,15.5-4.3,15.5-7.3
				s-4.8-7.3-15.5-7.3h-11v-11c0-68.1-54-91.4-94.6-103l-3.1-0.9l-2.1-2.4c-0.1-0.2-16.9-18.3-39.4-18.3v-22
				c26.8,0,46.8,16.8,53.4,23.2c13.9,4,39.2,12,61.7,28.9c27.9,21.1,43.3,49.5,45.7,84.4c17.6,3.6,26.8,16,26.8,28.3
				c0,12.6-9.6,25.3-28,28.5C261.8,235.4,239.7,290.8,148.1,294z"/>
			<path class="st2" d="M219.2,97.4c-76.4-62.6-137.3-3.3-139.9-0.7L63.8,81.1c0.8-0.8,77.7-75.8,169.3-0.7L219.2,97.4z"/>
		</g>
		<g>
			<circle class="st2" cx="107.9" cy="160.3" r="14.7"/>
			<path class="st2" d="M107.9,180.5c-11.1,0-20.1-9-20.1-20.1c0-11.1,9-20.1,20.1-20.1s20.1,9,20.1,20.1
				C128,171.4,119,180.5,107.9,180.5z M107.9,151.2c-5,0-9.2,4.1-9.2,9.2c0,5.1,4.1,9.2,9.2,9.2s9.2-4.1,9.2-9.2
				C117,155.3,112.9,151.2,107.9,151.2z"/>
		</g>
		<g>
			<circle class="st2" cx="188.4" cy="160.3" r="14.7"/>
			<path class="st2" d="M188.4,180.5c-11.1,0-20.1-9-20.1-20.1c0-11.1,9-20.1,20.1-20.1s20.1,9,20.1,20.1
				C208.6,171.4,199.6,180.5,188.4,180.5z M188.4,151.2c-5,0-9.2,4.1-9.2,9.2c0,5.1,4.1,9.2,9.2,9.2c5,0,9.2-4.1,9.2-9.2
				C197.6,155.3,193.5,151.2,188.4,151.2z"/>
		</g>
		<path class="st2" d="M148.4,252.8c-0.3,0-0.7,0-1,0c-21-0.3-40.6-10.1-56.9-28.4l16.4-14.6c12,13.5,26.1,20.8,40.8,21
			c15.2,0.2,30.4-7.1,43.7-21.3l16,15.1C190,243.1,169.6,252.8,148.4,252.8z"/>
	</g>
	<g class="st1">
		<g>
			<path class="st3" d="M450.6,294c-91.7-3.2-113.8-58.7-118.9-81.4c-18-3.4-27.7-16.6-27.7-29.2c0-8.1,3.9-15.7,10.7-20.9
				c4.3-3.3,9.6-5.5,15.8-6.7c2.4-34.9,17.8-63.3,45.7-84.4C397.8,55.1,422,47.1,436.2,43c8.3-13.5,30.8-38.3,58.7-38.3v22
				c-19.5,0-38,22.8-41.2,30.1l-2.1,4.7l-4.9,1.4c-40.6,11.6-94.6,34.9-94.6,103v11h-11c-7.7,0-11.5,2-13.1,3.2
				c-1.4,1-2.1,2.2-2.1,3.4c0,3.2,4.8,8,15.1,8h10.5l0.5,10.5c0.2,2.7,5.1,66.9,99.3,70.1L450.6,294z"/>
			<path class="st3" d="M449.1,294l-0.8-22c94.2-3.2,99.1-67.5,99.3-70.2l0.6-10.3l10.4-0.1c10.7,0,15.5-4.3,15.5-7.3
				s-4.8-7.3-15.5-7.3h-11v-11c0-68.1-54-91.4-94.6-103l-3.1-0.9l-2.1-2.4c-0.1-0.2-16.9-18.3-39.4-18.3v-22
				c26.8,0,46.8,16.8,53.4,23.2c13.9,4,39.2,12,61.7,28.9c27.9,21.1,43.3,49.5,45.7,84.4c17.6,3.6,26.8,16,26.8,28.3
				c0,12.6-9.6,25.3-28,28.5C562.8,235.4,540.7,290.8,449.1,294z"/>
			<path class="st3" d="M520.2,97.4c-76.4-62.6-137.3-3.3-139.9-0.7l-15.5-15.5c0.8-0.8,77.7-75.8,169.3-0.7L520.2,97.4z"/>
		</g>
		<g>
			<circle class="st3" cx="408.9" cy="160.3" r="14.7"/>
			<path class="st3" d="M408.9,180.5c-11.1,0-20.1-9-20.1-20.1c0-11.1,9-20.1,20.1-20.1c11.1,0,20.1,9,20.1,20.1
				C429,171.4,420,180.5,408.9,180.5z M408.9,151.2c-5,0-9.2,4.1-9.2,9.2c0,5.1,4.1,9.2,9.2,9.2s9.2-4.1,9.2-9.2
				C418,155.3,413.9,151.2,408.9,151.2z"/>
		</g>
		<g>
			<circle class="st3" cx="489.4" cy="160.3" r="14.7"/>
			<path class="st3" d="M489.4,180.5c-11.1,0-20.1-9-20.1-20.1c0-11.1,9-20.1,20.1-20.1c11.1,0,20.1,9,20.1,20.1
				C509.6,171.4,500.6,180.5,489.4,180.5z M489.4,151.2c-5,0-9.2,4.1-9.2,9.2c0,5.1,4.1,9.2,9.2,9.2c5,0,9.2-4.1,9.2-9.2
				C498.6,155.3,494.5,151.2,489.4,151.2z"/>
		</g>
		<path class="st3" d="M449.4,252.8c-0.3,0-0.7,0-1,0c-21-0.3-40.6-10.1-56.9-28.4l16.4-14.6c12,13.5,26.1,20.8,40.8,21
			c15.2,0.2,30.4-7.1,43.7-21.3l16,15.1C491,243.1,470.6,252.8,449.4,252.8z"/>
	</g>
</g>
<g id="fish" class="st0">
	<g class="st1">
		<path class="st2" d="M137.1,269.6l-3.2-9.5c-0.3-0.8-5.9-17.9-7.4-32.8c-11-6-35.7-20.4-49.8-35.7c-14,8.8-26.2,16.5-54.6,18.1
			l-12.6,0.7l1.1-12.5c1.5-16,10.7-35.2,15.9-45.1c-6.1-8.6-16.6-25.3-19.4-42.4L5,97.1l13.5,0.7c25,1.3,46.3,11.2,57.9,17.8
			c26.8-33.9,69.2-41.4,71.1-41.7l3.6,21.4c-0.4,0.1-42,7.5-62.5,40.7l-6.2,10l-9.4-6.9c-0.2-0.1-16.8-12-39.5-17.3
			c5.8,12.7,14.4,23.1,14.5,23.3l4.9,5.9l-3.9,6.6c-3,5-9.4,17.1-13.4,28.8c12.9-2.5,20.2-7.1,30-13.3c2.6-1.6,5.3-3.3,8.2-5.1
			l9.3-5.6l5.6,9.3c8,13.4,40,32.5,53.3,39.2l6,3v6.7c0,6.2,1.7,14.6,3.5,21.6c9.3-4.9,19.9-12.9,29-19.8l7.3-5.5h3.6
			c8.5,0,44.6-12.5,66.9-36.4c11-11.8,16.5-24.1,16.2-36.7c-26.3-53.1-82.9-56.8-83.4-56.9l1.2-21.6c2.9,0.2,71.5,4.7,102.8,71.2
			l0.9,1.9l0.1,2c1.3,19.5-6.1,38-21.9,55c-24,25.7-61.6,40.7-78.7,42.9l-1.8,1.4c-14.7,11.1-31.3,23.7-46.5,27.5L137.1,269.6z"/>
		<path class="st2" d="M109.1,92.8c0-0.1-2.7-13-13.2-47.9L91.8,31h14.6c73.7,0,101.8,42.9,103,44.7l-18.3,11.6l9.1-5.8l-9.1,5.9
			c-0.9-1.3-19.9-29.4-70.1-34.1c7.3,25.2,9.2,34.7,9.3,35.2L109.1,92.8z"/>
		<circle class="st2" cx="225.5" cy="142.9" r="14.4"/>
	</g>
	<g class="st1">
		<path class="st3" d="M437.1,269.6l-3.2-9.5c-0.3-0.8-5.9-17.9-7.4-32.8c-11-6-35.7-20.4-49.8-35.7c-14,8.8-26.2,16.5-54.6,18.1
			l-12.6,0.7l1.1-12.5c1.5-16,10.7-35.2,15.9-45.1c-6.1-8.6-16.6-25.3-19.4-42.4L305,97.1l13.5,0.7c25,1.3,46.3,11.2,57.9,17.8
			c26.8-33.9,69.2-41.4,71.1-41.7l3.6,21.4c-0.4,0.1-42,7.5-62.5,40.7l-6.2,10l-9.4-6.9c-0.2-0.1-16.8-12-39.5-17.3
			c5.8,12.7,14.4,23.1,14.5,23.3l4.9,5.9l-3.9,6.6c-3,5-9.4,17.1-13.4,28.8c12.9-2.5,20.2-7.1,30-13.3c2.6-1.6,5.3-3.3,8.2-5.1
			l9.3-5.6l5.6,9.3c8,13.4,40,32.5,53.3,39.2l6,3v6.7c0,6.2,1.7,14.6,3.5,21.6c9.3-4.9,19.9-12.9,29-19.8l7.3-5.5h3.6
			c8.5,0,44.6-12.5,66.9-36.4c11-11.8,16.5-24.1,16.2-36.7c-26.3-53.1-82.9-56.8-83.4-56.9l1.2-21.6c2.9,0.2,71.5,4.7,102.8,71.2
			l0.9,1.9l0.1,2c1.3,19.5-6.1,38-21.9,55c-24,25.7-61.6,40.7-78.7,42.9l-1.8,1.4c-14.7,11.1-31.3,23.7-46.5,27.5L437.1,269.6z"/>
		<path class="st3" d="M409.1,92.8c0-0.1-2.7-13-13.2-47.9L391.8,31h14.6c73.7,0,101.8,42.9,103,44.7l-18.3,11.6l9.1-5.8l-9.1,5.9
			c-0.9-1.3-19.9-29.4-70.1-34.1c7.3,25.2,9.2,34.7,9.3,35.2L409.1,92.8z"/>
		<circle class="st3" cx="525.5" cy="142.9" r="14.4"/>
	</g>
</g>
<g id="bread" class="st0">
	<g class="st1">
		<path class="st2" d="M42.8,298.1c-13.7,0-22.1-5.9-27-11.5c-25.2-28.9-1.9-104.3,2.8-118.5c0.7-19.7,11.6-54.7,48.3-65.4
			c-0.9-9.4,1.4-18.3,6.9-26.3c10.1-14.7,30.4-24.4,53.3-25.7c-1.8-6.3-0.1-13.3,4.4-19.1c5.3-6.8,19.6-17.9,54.9-17
			c20.4-7.4,66.2-20.7,91.7-2.8c7.6,5.3,16.7,15.9,16.8,36c3.6,49.3-63.2,120.1-92.1,148.4C157,240.9,93.1,289.4,53.5,297
			C49.6,297.8,46,298.1,42.8,298.1z M146,45.6c2.1,7.4,1.5,13.5-1.9,18c-2.1,2.9-6.2,6.4-13.8,6.6c-17.6,0.4-33.5,7.2-40.4,17.3
			c-4,5.8-4.7,12.2-2.1,19.4l4,11.2L80,120c-40.8,6-41.8,48.2-41.8,50l0,1.6l-0.5,1.5c-10.3,30.3-21.3,84.4-7.1,100.7
			c1.4,1.6,5.7,6.6,19.2,4c30.4-5.9,87.6-45.1,139.3-95.5C244.5,128.1,277.6,77,275.3,49l0-0.8c0-9.7-2.7-16.3-8.4-20.3
			c-15.3-10.7-50.3-3.5-75.5,5.8l-1.8,0.7l-2-0.1c-27.8-1.1-37.5,6.2-39.8,8.5C146.3,44.3,146,45.3,146,45.6z M127.6,53.6
			L127.6,53.6L127.6,53.6z"/>
		<path class="st2" d="M197.3,91.2c-11.5,0-27.5-5.1-48.7-12.3c-10-3.4-23.5-8-27.2-7.9c0,0,0.5,0,1.2-0.3l-6.4-18.5
			c5.8-2,13.4-0.3,27.8,4.5l-0.7-18.4c6.8-0.2,66.6-1.5,73.1,32.4c1.7,8.9-2.3,13.9-4.9,16.1C207.9,89.9,203.2,91.2,197.3,91.2z
			 M147.2,57.7c2.4,0.8,5,1.7,7.8,2.6c11.7,4,32.1,11,41.2,11.4c-5.7-10.7-33.1-14-48.7-14C147.4,57.7,147.3,57.7,147.2,57.7z"/>
		<path class="st2" d="M91.2,190.4c-8.9,0-20.6-2.5-35.6-6c-8.5-2-21.4-4.9-24.8-4.4c0.2,0,0.3-0.1,0.5-0.1l-6.4-18.5
			c3.4-1.2,7.7-1.3,13.3-0.5L36.6,144c4.8-0.5,47.8-4.1,65.9,12.1c5.5,4.9,8.5,11.4,8.7,18.6c0.1,4.7-1.8,8.8-5.3,11.6
			C102.2,189.2,97.3,190.4,91.2,190.4z M49.2,162.9c3.2,0.7,6.8,1.5,10.8,2.4c8.2,1.9,22,5.1,29.7,5.5c-0.1-0.1-0.1-0.1-0.2-0.2
			C82.8,164.7,64.6,162.7,49.2,162.9z"/>
		<path class="st2" d="M151.1,143c-12.9,0-31.2-5-55.2-12.2c-10.8-3.2-25.5-7.6-29.3-7.4c0,0,0.4,0,1.1-0.3l-6.4-18.5
			c6.5-2.2,15.7,0.1,40.2,7.4c13.6,4,40.3,11.9,50.7,11.5c-6.7-8.4-40.5-17.1-75.9-19.2l1.2-19.6c21,1.2,90.1,7.6,95.2,37.7
			c1.4,8.4-2.5,13.4-5,15.6C163.7,141.5,158.2,143,151.1,143z"/>
	</g>
	<g class="st1">
		<path class="st3" d="M341.8,298.1c-13.7,0-22.1-5.9-27-11.5c-25.2-28.9-1.9-104.3,2.8-118.5c0.7-19.7,11.6-54.7,48.3-65.4
			c-0.9-9.4,1.4-18.3,6.9-26.3c10.1-14.7,30.4-24.4,53.3-25.7c-1.8-6.3-0.1-13.3,4.4-19.1c5.3-6.8,19.6-17.9,54.9-17
			c20.4-7.4,66.2-20.7,91.7-2.8c7.6,5.3,16.7,15.9,16.8,36c3.6,49.3-63.2,120.1-92.1,148.4C456,240.9,392.1,289.4,352.5,297
			C348.6,297.8,345,298.1,341.8,298.1z M445,45.6c2.1,7.4,1.5,13.5-1.9,18c-2.1,2.9-6.2,6.4-13.8,6.6c-17.6,0.4-33.5,7.2-40.4,17.3
			c-4,5.8-4.7,12.2-2.1,19.4l4,11.2L379,120c-40.8,6-41.8,48.2-41.8,50l0,1.6l-0.5,1.5c-10.3,30.3-21.3,84.4-7.1,100.7
			c1.4,1.6,5.7,6.6,19.2,4c30.4-5.9,87.6-45.1,139.3-95.5C543.5,128.1,576.6,77,574.3,49l0-0.8c0-9.7-2.7-16.3-8.4-20.3
			c-15.3-10.7-50.3-3.5-75.5,5.8l-1.8,0.7l-2-0.1c-27.8-1.1-37.5,6.2-39.8,8.5C445.3,44.3,445,45.3,445,45.6z M426.6,53.6
			L426.6,53.6L426.6,53.6z"/>
		<path class="st3" d="M496.3,91.2c-11.5,0-27.5-5.1-48.7-12.3c-10-3.4-23.5-8-27.2-7.9c0,0,0.5,0,1.2-0.3l-6.4-18.5
			c5.8-2,13.4-0.3,27.8,4.5l-0.7-18.4c6.8-0.2,66.6-1.5,73.1,32.4c1.7,8.9-2.3,13.9-4.9,16.1C506.9,89.9,502.2,91.2,496.3,91.2z
			 M446.2,57.7c2.4,0.8,5,1.7,7.8,2.6c11.7,4,32.1,11,41.2,11.4c-5.7-10.7-33.1-14-48.7-14C446.4,57.7,446.3,57.7,446.2,57.7z"/>
		<path class="st3" d="M390.2,190.4c-8.9,0-20.6-2.5-35.6-6c-8.5-2-21.4-4.9-24.8-4.4c0.2,0,0.3-0.1,0.5-0.1l-6.4-18.5
			c3.4-1.2,7.7-1.3,13.3-0.5l-1.6-16.9c4.8-0.5,47.8-4.1,65.9,12.1c5.5,4.9,8.5,11.4,8.6,18.6c0.1,4.7-1.8,8.8-5.3,11.6
			C401.2,189.2,396.3,190.4,390.2,190.4z M348.2,162.9c3.2,0.7,6.8,1.5,10.8,2.4c8.2,1.9,22,5.1,29.7,5.5c-0.1-0.1-0.1-0.1-0.2-0.2
			C381.8,164.7,363.6,162.7,348.2,162.9z"/>
		<path class="st3" d="M450.1,143c-12.9,0-31.2-5-55.2-12.2c-10.8-3.2-25.5-7.6-29.3-7.4c0,0,0.4,0,1.1-0.3l-6.4-18.5
			c6.5-2.2,15.7,0.1,40.2,7.4c13.6,4,40.3,11.9,50.7,11.5c-6.7-8.4-40.5-17.1-75.9-19.2l1.2-19.6c21,1.2,90.1,7.6,95.2,37.7
			c1.4,8.4-2.5,13.4-5,15.6C462.7,141.5,457.2,143,450.1,143z"/>
	</g>
</g>
<g id="carrot" class="st0">
	<g class="st1">
		<path class="st2" d="M20.7,287.8c-4.4,0-6.5-1-8.3-1.9c-3.3-1.6-8.9-5.8-8.8-16c0.1-21.3,28.6-76.5,52.5-119.1
			c11.9-21.3,51.9-91.2,64.2-97l1.9-0.9l2.1-0.2c25.1-2.2,54.2,11.1,79.8,36.6c28.1,27.8,44.2,62.7,42,90.9l-0.3,3.2l-1.9,2.6
			c-6.4,9.1-106.1,57-107.1,57.5C59.3,280.5,32.2,287.8,20.7,287.8z M130,75.8C111.5,97.2,37.2,226.4,27.9,263.2
			c11-2.6,37.6-11.6,99.6-41.3c43.4-20.8,82.6-41.5,95.3-49c-0.8-20.5-14.1-46.2-35.2-67.1C168.9,87.2,147.2,76,130,75.8z"/>
		
			<rect x="92" y="112.4" transform="matrix(0.5661 -0.8244 0.8244 0.5661 -64.7886 143.2859)" class="st2" width="23.4" height="41.6"/>
		
			<rect x="175.6" y="158.5" transform="matrix(0.8385 -0.5449 0.5449 0.8385 -68.1345 131.2237)" class="st2" width="23.4" height="44.2"/>
		
			<rect x="96.5" y="205.6" transform="matrix(0.896 -0.444 0.444 0.896 -88.1503 71.3057)" class="st2" width="23.4" height="36.5"/>
		<path class="st2" d="M201.2,103.9l-15.8-17.2c1.4-1.3,2.7-2.5,4.1-3.7l72.1-64.8l15.6,17.4l-25.9,23.3c20,0.5,36.5,8.6,45.7,16.2
			l-14.8,18.1c-1.5-1.2-36.1-28.1-77.3,7.4L201.2,103.9z"/>
		<path class="st2" d="M204.9,100.5L189,83.4c15.8-14.7,23.6-28.2,22.7-39.1c-0.8-9.5-8.3-14.7-8.3-14.8L216.1,10
			c1.7,1.1,17.1,11.7,18.8,32.4C236.5,61,226.4,80.5,204.9,100.5z"/>
	</g>
	<g class="st1">
		<path class="st3" d="M319.7,287.8c-4.4,0-6.5-1-8.3-1.9c-3.3-1.6-8.9-5.8-8.8-16c0.1-21.3,28.6-76.5,52.5-119.1
			c11.9-21.3,51.9-91.2,64.2-97l1.9-0.9l2.1-0.2c25.1-2.2,54.2,11.1,79.8,36.6c28.1,27.8,44.2,62.7,42,90.9l-0.3,3.2l-1.9,2.6
			c-6.4,9.1-106.1,57-107.1,57.5C358.3,280.5,331.2,287.8,319.7,287.8z M429,75.8c-18.5,21.4-92.8,150.6-102.2,187.4
			c11-2.6,37.6-11.6,99.6-41.3c43.4-20.8,82.6-41.5,95.3-49c-0.8-20.5-14.1-46.2-35.2-67.1C467.9,87.2,446.2,76,429,75.8z"/>
		
			<rect x="391" y="112.4" transform="matrix(0.5661 -0.8244 0.8244 0.5661 64.9585 389.7702)" class="st3" width="23.4" height="41.6"/>
		
			<rect x="474.6" y="158.5" transform="matrix(0.8385 -0.5449 0.5449 0.8385 -19.8424 294.1549)" class="st3" width="23.4" height="44.2"/>
		
			<rect x="395.5" y="205.6" transform="matrix(0.896 -0.444 0.444 0.896 -57.0562 204.0741)" class="st3" width="23.4" height="36.5"/>
		<path class="st3" d="M500.2,103.9l-15.8-17.2c1.4-1.3,2.7-2.5,4.1-3.7l72.1-64.8l15.6,17.4l-25.9,23.3c20,0.5,36.5,8.6,45.7,16.2
			l-14.8,18.1c-1.5-1.2-36.1-28.1-77.3,7.4L500.2,103.9z"/>
		<path class="st3" d="M503.9,100.5L488,83.4c15.8-14.7,23.6-28.2,22.7-39.1c-0.8-9.5-8.3-14.7-8.3-14.8L515.1,10
			c1.7,1.1,17.1,11.7,18.8,32.4C535.5,61,525.4,80.5,503.9,100.5z"/>
	</g>
</g>
<g id="meat" class="st0">
	<g class="st1">
		<path class="st4" d="M17.8,162.3"/>
		
			<rect x="235.8" y="47.7" transform="matrix(0.6665 -0.7455 0.7455 0.6665 10.5143 215.2753)" class="st2" width="20.2" height="96.4"/>
		
			<rect x="40.6" y="136.4" transform="matrix(0.7017 -0.7124 0.7124 0.7017 -119.1435 92.2726)" class="st2" width="20.2" height="104"/>
		
			<rect x="209.9" y="57.2" transform="matrix(0.6941 -0.7198 0.7198 0.6941 -20.9147 195.8487)" class="st2" width="20.2" height="130.7"/>
		
			<rect x="178" y="82.4" transform="matrix(0.6941 -0.7198 0.7198 0.6941 -48.8086 180.5842)" class="st2" width="20.2" height="130.7"/>
		
			<rect x="134" y="97.5" transform="matrix(0.6961 -0.7179 0.7179 0.6961 -74.4943 153.5215)" class="st2" width="20.2" height="134.5"/>
		
			<rect x="81.5" y="101.7" transform="matrix(0.683 -0.7304 0.7304 0.683 -98.7272 122.2902)" class="st2" width="20.2" height="146.5"/>
		<path class="st2" d="M128.2,251.9c-89.1,0-112.9-41.3-115.2-45.7c-0.6-1.1-4-7.6-6.8-16.6c-4.4-13.9-7.5-34.1,2.1-51.5
			c7.3-13.1,20.3-22.2,38.8-27l1.4-0.3c8-0.9,15.3-1.6,22-2.3c23.4-2.3,39.1-3.8,48.9-9.1c1.6-1.4,3.6-3.2,5.9-5.3
			c16.7-15.2,47.7-43.4,80.7-43.4c0.2,0,0.5,0,0.7,0c40.8,0.5,74.9,27.9,84.8,68.1c9,36.4,1.8,56-0.4,60.8
			c-2.9,8.4-25.4,61.4-134.4,70.9C146.5,251.5,137,251.9,128.2,251.9z M30.9,197c0.6,1.1,24.2,42.2,124,33.5
			c102.3-8.9,117-56.9,117.1-57.4l0.3-1.1l0.5-1l0,0c0,0,7.1-15.2-0.9-47.4c-7.7-31.2-34-52.4-65.5-52.8c-0.2,0-0.3,0-0.5,0
			c-25.1,0-52.4,24.8-67.1,38.2c-2.9,2.6-5.3,4.8-7.3,6.5l-1.4,1c-13.5,7.7-31.1,9.4-57.7,12c-6.4,0.6-13.4,1.3-21,2.2
			c-12.5,3.4-21.1,9.1-25.5,17.1c-6.2,11.2-3.7,25.6-0.5,35.7c2.4,7.7,5.3,13,5.3,13.1L30.9,197z"/>
		<path class="st2" d="M111.9,237.3c-28.3,0-45.4-6.5-62.2-21c-23.2-19.7-38.2-32.1-38.3-32.2l12.8-15.5
			c0.1,0.1,15.2,12.6,38.6,32.4c18.4,15.9,36.6,21,101.8,11.2c60.6-9.1,108.5-46.1,109.2-84.3l20.1,0.4
			c-0.9,48.5-55.2,93.1-126.4,103.8C144.9,235.4,126.8,237.3,111.9,237.3z"/>
	</g>
	<g class="st1">
		<path class="st5" d="M317.8,162.3"/>
		
			<rect x="535.8" y="47.7" transform="matrix(0.6665 -0.7455 0.7455 0.6665 110.5655 438.9279)" class="st3" width="20.2" height="96.4"/>
		
			<rect x="340.6" y="136.4" transform="matrix(0.7017 -0.7124 0.7124 0.7017 -29.6628 306.0052)" class="st3" width="20.2" height="104"/>
		
			<rect x="509.9" y="57.2" transform="matrix(0.6941 -0.7198 0.7198 0.6941 70.8446 411.802)" class="st3" width="20.2" height="130.7"/>
		
			<rect x="478" y="82.4" transform="matrix(0.6941 -0.7198 0.7198 0.6941 42.9507 396.5375)" class="st3" width="20.2" height="130.7"/>
		
			<rect x="434" y="97.5" transform="matrix(0.6961 -0.7179 0.7179 0.6961 16.6766 368.9058)" class="st3" width="20.2" height="134.5"/>
		
			<rect x="381.5" y="101.7" transform="matrix(0.683 -0.7304 0.7304 0.683 -3.6364 341.4071)" class="st3" width="20.2" height="146.5"/>
		<path class="st3" d="M428.2,251.9c-89.1,0-112.9-41.3-115.2-45.7c-0.6-1.1-4-7.6-6.8-16.6c-4.4-13.9-7.5-34.1,2.1-51.5
			c7.3-13.1,20.3-22.2,38.8-27l1.4-0.3c8-0.9,15.3-1.6,22-2.3c23.4-2.3,39.1-3.8,48.9-9.1c1.6-1.4,3.6-3.2,5.9-5.3
			c16.7-15.2,47.7-43.4,80.7-43.4c0.2,0,0.5,0,0.7,0c40.8,0.5,74.9,27.9,84.8,68.1c9,36.4,1.8,56-0.4,60.8
			c-2.9,8.4-25.4,61.4-134.4,70.9C446.5,251.5,437,251.9,428.2,251.9z M330.9,197c0.6,1.1,24.2,42.2,124,33.5
			c102.3-8.9,117-56.9,117.1-57.4l0.3-1.1l0.5-1l0,0c0,0,7.1-15.2-0.9-47.4c-7.7-31.2-34-52.4-65.5-52.8c-0.2,0-0.3,0-0.5,0
			c-25.1,0-52.4,24.8-67.1,38.2c-2.9,2.6-5.3,4.8-7.3,6.5l-1.4,1c-13.5,7.7-31.1,9.4-57.7,12c-6.4,0.6-13.4,1.3-21,2.2
			c-12.5,3.4-21.1,9.1-25.5,17.1c-6.2,11.2-3.7,25.6-0.5,35.7c2.4,7.7,5.3,13,5.3,13.1L330.9,197z"/>
		<path class="st3" d="M411.9,237.3c-28.3,0-45.4-6.5-62.2-21c-23.2-19.7-38.2-32.1-38.3-32.2l12.8-15.5
			c0.1,0.1,15.2,12.6,38.6,32.4c18.4,15.9,36.6,21,101.8,11.2c60.6-9.1,108.5-46.1,109.2-84.3l20.1,0.4
			c-0.9,48.5-55.2,93.1-126.4,103.8C444.9,235.4,426.8,237.3,411.9,237.3z"/>
	</g>
</g>
<g id="frozen" class="st0">
	<g class="st1">
		<g>
			<g>
				<rect x="138.2" y="2" class="st2" width="22.2" height="148"/>
				
					<rect x="116.4" y="24.2" transform="matrix(0.723 -0.6909 0.6909 0.723 -1.3114 102.7901)" class="st2" width="22.2" height="57.6"/>
				
					<rect x="142" y="41.9" transform="matrix(0.6908 -0.723 0.723 0.6908 14.4712 139.9012)" class="st2" width="57.6" height="22.2"/>
			</g>
			<g>
				<rect x="138.1" y="150" class="st2" width="22.2" height="148"/>
				
					<rect x="159.8" y="218.2" transform="matrix(0.723 -0.6909 0.6909 0.723 -123.2804 186.4867)" class="st2" width="22.2" height="57.6"/>
				
					<rect x="98.8" y="235.9" transform="matrix(0.6908 -0.723 0.723 0.6908 -139.1139 168.6308)" class="st2" width="57.6" height="22.2"/>
			</g>
		</g>
		<g>
			<g>
				
					<rect x="73.6" y="39.7" transform="matrix(0.4898 -0.8718 0.8718 0.4898 -55.915 131.8755)" class="st2" width="22.2" height="148"/>
				
					<rect x="25.3" y="110.3" transform="matrix(0.9687 -0.248 0.248 0.9687 -28.4266 17.2009)" class="st2" width="57.6" height="22.2"/>
				
					<rect x="64.2" y="54.9" transform="matrix(0.9565 -0.2919 0.2919 0.9565 -21.1457 25.6102)" class="st2" width="22.2" height="57.6"/>
			</g>
			<g>
				
					<rect x="202.6" y="112.3" transform="matrix(0.4898 -0.8718 0.8718 0.4898 -53.3833 281.3501)" class="st2" width="22.2" height="148"/>
				
					<rect x="215.6" y="167.5" transform="matrix(0.9687 -0.248 0.248 0.9687 -36.6609 66.1988)" class="st2" width="57.6" height="22.2"/>
				
					<rect x="212.1" y="187.5" transform="matrix(0.9565 -0.2919 0.2919 0.9565 -53.4269 74.5645)" class="st2" width="22.2" height="57.6"/>
			</g>
		</g>
		<g>
			<g>
				
					<rect x="138.9" y="101.2" transform="matrix(0.8601 -0.5101 0.5101 0.8601 -27.5015 124.312)" class="st2" width="148" height="22.2"/>
				
					<rect x="192.8" y="70.8" transform="matrix(0.2696 -0.963 0.963 0.2696 82.9843 273.1678)" class="st2" width="57.6" height="22.2"/>
				
					<rect x="232.5" y="90.3" transform="matrix(0.2254 -0.9743 0.9743 0.2254 72.66 329.6351)" class="st2" width="22.2" height="57.6"/>
			</g>
			<g>
				
					<rect x="11.5" y="176.6" transform="matrix(0.8601 -0.5101 0.5101 0.8601 -83.7868 69.8975)" class="st2" width="148" height="22.2"/>
				
					<rect x="48.1" y="207" transform="matrix(0.2696 -0.963 0.963 0.2696 -153.8976 233.3467)" class="st2" width="57.6" height="22.2"/>
				
					<rect x="43.7" y="152.1" transform="matrix(0.2254 -0.9743 0.9743 0.2254 -133.7898 193.4841)" class="st2" width="22.2" height="57.6"/>
			</g>
		</g>
	</g>
	<g class="st1">
		<g>
			<g>
				<rect x="438.2" y="2" class="st3" width="22.2" height="148"/>
				
					<rect x="416.4" y="24.2" transform="matrix(0.723 -0.6909 0.6909 0.723 81.7914 310.0475)" class="st3" width="22.2" height="57.6"/>
				
					<rect x="442" y="41.9" transform="matrix(0.6908 -0.723 0.723 0.6908 107.2286 356.8126)" class="st3" width="57.6" height="22.2"/>
			</g>
			<g>
				<rect x="438.1" y="150" class="st3" width="22.2" height="148"/>
				
					<rect x="459.8" y="218.2" transform="matrix(0.723 -0.6909 0.6909 0.723 -40.1776 393.7441)" class="st3" width="22.2" height="57.6"/>
				
					<rect x="398.8" y="235.9" transform="matrix(0.6908 -0.723 0.723 0.6908 -46.3568 385.5417)" class="st3" width="57.6" height="22.2"/>
			</g>
		</g>
		<g>
			<g>
				
					<rect x="373.6" y="39.7" transform="matrix(0.4898 -0.8718 0.8718 0.4898 97.1363 393.4211)" class="st3" width="22.2" height="148"/>
				
					<rect x="325.3" y="110.3" transform="matrix(0.9687 -0.248 0.248 0.9687 -19.0511 91.6148)" class="st3" width="57.6" height="22.2"/>
				
					<rect x="364.2" y="54.9" transform="matrix(0.9565 -0.2919 0.2919 0.9565 -8.081 113.1782)" class="st3" width="22.2" height="57.6"/>
			</g>
			<g>
				
					<rect x="502.6" y="112.3" transform="matrix(0.4898 -0.8718 0.8718 0.4898 99.6656 542.8943)" class="st3" width="22.2" height="148"/>
				
					<rect x="515.6" y="167.5" transform="matrix(0.9687 -0.248 0.248 0.9687 -27.2853 140.6127)" class="st3" width="57.6" height="22.2"/>
				
					<rect x="512.1" y="187.5" transform="matrix(0.9565 -0.2919 0.2919 0.9565 -40.3622 162.1325)" class="st3" width="22.2" height="57.6"/>
			</g>
		</g>
		<g>
			<g>
				
					<rect x="438.9" y="101.2" transform="matrix(0.8601 -0.5101 0.5101 0.8601 14.4697 277.3517)" class="st3" width="148" height="22.2"/>
				
					<rect x="492.8" y="70.8" transform="matrix(0.2696 -0.963 0.963 0.2696 302.1171 562.0632)" class="st3" width="57.6" height="22.2"/>
				
					<rect x="532.5" y="90.3" transform="matrix(0.2254 -0.9743 0.9743 0.2254 305.0275 621.9121)" class="st3" width="22.2" height="57.6"/>
			</g>
			<g>
				
					<rect x="311.5" y="176.6" transform="matrix(0.8601 -0.5101 0.5101 0.8601 -41.8155 222.9373)" class="st3" width="148" height="22.2"/>
				
					<rect x="348.1" y="207" transform="matrix(0.2696 -0.963 0.963 0.2696 65.2351 522.242)" class="st3" width="57.6" height="22.2"/>
				
					<rect x="343.7" y="152.1" transform="matrix(0.2254 -0.9743 0.9743 0.2254 98.5818 485.762)" class="st3" width="22.2" height="57.6"/>
			</g>
		</g>
	</g>
</g>
<g id="healthy" class="st0">
	<g class="st1">
		<path class="st2" d="M184.8,281h-69.6l-1.2-0.3c-95.6-23-92.9-119.2-92.9-120.2l0.4-10.2h257l0.4,10.2c0,1,2.8,97.3-92.9,120.2
			L184.8,281z M117.7,259.8h64.5c61.3-15.3,72.9-66.3,75-88.3H42.7C44.8,193.5,56.4,244.5,117.7,259.8z"/>
		<path class="st2" d="M146.4,163.4l-19.9-7.3c2.1-5.9,19.4-51.5,43.4-70.1c-10.1-18-11-33.2-2.8-45.2c19.8-28.7,85.3-20.6,108.9-15
			l18.7,4.4L281,43.7c-9.8,9.7-17.5,22.7-25,35.3c-11.5,19.5-22.4,37.9-40.5,39.6c-10.7,1-21.3-4-33-15.6
			C169.2,113.3,153.9,142.8,146.4,163.4z M192.2,82.1l0.5,0.6c11.7,13.4,18.1,15,20.9,14.7c7.3-0.7,15.9-15.2,24.2-29.3
			c4.7-8,9.9-16.7,15.9-24.9c-29.7-4-61.5-1.3-69.1,9.7c-5.2,7.5,2.6,21.5,7.7,29.1L192.2,82.1z"/>
		<path class="st2" d="M150.9,160.5l-21.1-1.6l10.6,0.8l-10.6-0.8c0-0.4,2.2-33.6-13.6-57.8c-7,6.1-18.1,12.8-33.8,14.6
			c-27.8,3.8-38.9-21.2-49.7-45.4C27.5,59,22.2,47.2,15.1,37L4.6,22.2l18-1.8c19.5-2,84.5-6.1,103.8,23.7c4.8,7.4,8.4,19.5,0.8,36.7
			C154.2,111.8,151,158.5,150.9,160.5z M41.8,40.3c3.9,7.3,7.1,14.6,10.2,21.5c10.8,24.1,16.6,34.6,27.7,33
			c15.6-1.8,24-10.4,26.8-13.9l-2.4-1.5c0.4-0.6,0.7-1.1,1-1.7c5.6-9.6,6.7-17.1,3.5-22.1C101.7,44.8,75.3,39,41.8,40.3z"/>
		<path class="st2" d="M101.8,110.8l-11.5-5.4c-3.8-7,1.6-12.4,3.4-14.1c2.8-2.7,10.1-10.1,13.2-16.8l19.3,8.8
			c-4.7,10.3-13.7,19.3-17.5,23.1c-0.4,0.4-0.7,0.7-0.9,0.9c2.5-2.6,3.7-7.6,1.2-12l-9.2,5.1L101.8,110.8z"/>
	</g>
	<g class="st1">
		<path class="st3" d="M483.8,281h-69.6l-1.2-0.3c-95.6-23-92.9-119.2-92.9-120.2l0.4-10.2h257l0.4,10.2c0,1,2.8,97.3-92.9,120.2
			L483.8,281z M416.7,259.8h64.5c61.3-15.3,72.9-66.3,75-88.3H341.7C343.8,193.5,355.4,244.5,416.7,259.8z"/>
		<path class="st3" d="M445.4,163.4l-19.9-7.3c2.1-5.9,19.4-51.5,43.4-70.1c-10.1-18-11-33.2-2.8-45.2c19.8-28.7,85.3-20.6,108.9-15
			l18.7,4.4L580,43.7c-9.8,9.7-17.5,22.7-25,35.3c-11.5,19.5-22.4,37.9-40.5,39.6c-10.7,1-21.3-4-33-15.6
			C468.2,113.3,452.9,142.8,445.4,163.4z M491.2,82.1l0.5,0.6c11.7,13.4,18.1,15,20.9,14.7c7.3-0.7,15.9-15.2,24.2-29.3
			c4.7-8,9.9-16.7,15.9-24.9c-29.7-4-61.5-1.3-69.1,9.7c-5.2,7.5,2.6,21.5,7.7,29.1L491.2,82.1z"/>
		<path class="st3" d="M449.9,160.5l-21.1-1.6l10.6,0.8l-10.6-0.8c0-0.4,2.2-33.6-13.6-57.8c-7,6.1-18.1,12.8-33.8,14.6
			c-27.8,3.8-38.9-21.2-49.7-45.4C326.5,59,321.2,47.2,314.1,37l-10.4-14.8l18-1.8c19.5-2,84.5-6.1,103.8,23.7
			c4.8,7.4,8.4,19.5,0.8,36.7C453.2,111.8,450,158.5,449.9,160.5z M340.8,40.3c3.9,7.3,7.1,14.6,10.2,21.5
			c10.8,24.1,16.6,34.6,27.7,33c15.6-1.8,24-10.4,26.8-13.9l-2.4-1.5c0.4-0.6,0.7-1.1,1-1.7c5.6-9.6,6.7-17.1,3.5-22.1
			C400.7,44.8,374.3,39,340.8,40.3z"/>
		<path class="st3" d="M400.8,110.8l-11.5-5.4c-3.8-7,1.6-12.4,3.4-14.1c2.8-2.7,10.1-10.1,13.2-16.8l19.3,8.8
			c-4.7,10.3-13.7,19.3-17.5,23.1c-0.4,0.4-0.7,0.7-0.9,0.9c2.5-2.6,3.7-7.6,1.2-12l-9.2,5.1L400.8,110.8z"/>
	</g>
</g>
<g id="sweets" class="st0">
	<g class="st1">
		<path class="st2" d="M149,256.9c-73.7,0-136-40.2-144.9-93.5c-0.7-4.3-1.1-8.7-1.1-13.1C3,91.5,68.5,43.7,149,43.7
			s146,47.8,146,106.6S229.5,256.9,149,256.9z M149,64.6c-69,0-125.1,38.5-125.1,85.7c0,3.3,0.3,6.5,0.8,9.7
			c7.2,43.4,60.7,76,124.3,76c69,0,125.1-38.5,125.1-85.7C274.1,103,218,64.6,149,64.6z"/>
		<path class="st2" d="M107.8,210.3c-12.6,0-22.5-4.5-37.5-14.2c-34.5,4.6-62.6-40.8-65.9-46.3l17.9-10.7
			c6.5,10.9,29.2,40.7,47.4,35.8l4.6-1.2l3.9,2.6c22.7,15.2,25.7,17.1,63,5.7l3.7-1.1l3.5,1.5c27,11.6,45.6-0.2,45.8-0.3l3.7-2.4
			l4.3,1c0.3,0.1,30.3,6.5,36.5-12.1l1.6-4.9l4.9-1.7c20.6-7.1,28.1-21.9,28.4-22.6l18.9,8.9c-0.4,0.9-10,20.9-35.9,31.7
			c-10.8,22.5-38.3,24.4-55,21.8c-8.6,4.1-30.2,11.7-57.8,1.3C128.2,207.8,117.3,210.3,107.8,210.3z"/>
		<path class="st2" d="M151.7,161.5c-34.1,0-60.9-17.4-60.9-39.7c0-22.2,26.7-39.7,60.9-39.7s60.9,17.4,60.9,39.7
			C212.6,144,185.9,161.5,151.7,161.5z M151.7,101.4c-23.8,0-41.6,10.8-41.6,20.4c0,9.6,17.8,20.4,41.6,20.4s41.6-10.8,41.6-20.4
			C193.3,112.2,175.5,101.4,151.7,101.4z"/>
		<circle class="st2" cx="45" cy="139.6" r="9"/>
		<circle class="st2" cx="74.6" cy="108.3" r="9"/>
		<circle class="st2" cx="96.4" cy="163.2" r="9"/>
		<circle class="st2" cx="212.3" cy="80.4" r="9"/>
		<circle class="st2" cx="244.1" cy="117.3" r="9"/>
		<circle class="st2" cx="221.3" cy="154.2" r="9"/>
		<circle class="st2" cx="111.9" cy="68.6" r="9"/>
	</g>
	<g class="st1">
		<path class="st3" d="M449,256.9c-73.7,0-136-40.2-144.9-93.5c-0.7-4.3-1.1-8.7-1.1-13.1c0-58.8,65.5-106.6,146-106.6
			s146,47.8,146,106.6S529.5,256.9,449,256.9z M449,64.6c-69,0-125.1,38.5-125.1,85.7c0,3.3,0.3,6.5,0.8,9.7
			c7.2,43.4,60.7,76,124.3,76c69,0,125.1-38.5,125.1-85.7C574.1,103,518,64.6,449,64.6z"/>
		<path class="st3" d="M407.8,210.3c-12.6,0-22.5-4.5-37.5-14.2c-34.5,4.6-62.6-40.8-65.9-46.3l17.9-10.7
			c6.5,10.9,29.2,40.7,47.4,35.8l4.6-1.2l3.9,2.6c22.7,15.2,25.7,17.1,63,5.7l3.7-1.1l3.5,1.5c27,11.6,45.6-0.2,45.8-0.3l3.7-2.4
			l4.3,1c0.3,0.1,30.3,6.5,36.5-12.1l1.6-4.9l4.9-1.7c20.6-7.1,28.1-21.9,28.4-22.6l18.9,8.9c-0.4,0.9-10,20.9-35.9,31.7
			c-10.8,22.5-38.3,24.4-55,21.8c-8.6,4.1-30.2,11.7-57.8,1.3C428.2,207.8,417.3,210.3,407.8,210.3z"/>
		<path class="st3" d="M451.7,161.5c-34.1,0-60.9-17.4-60.9-39.7c0-22.2,26.7-39.7,60.9-39.7s60.9,17.4,60.9,39.7
			C512.6,144,485.9,161.5,451.7,161.5z M451.7,101.4c-23.8,0-41.6,10.8-41.6,20.4c0,9.6,17.8,20.4,41.6,20.4s41.6-10.8,41.6-20.4
			C493.3,112.2,475.5,101.4,451.7,101.4z"/>
		<circle class="st3" cx="345" cy="139.6" r="9"/>
		<circle class="st3" cx="374.6" cy="108.3" r="9"/>
		<circle class="st3" cx="396.4" cy="163.2" r="9"/>
		<circle class="st3" cx="512.3" cy="80.4" r="9"/>
		<circle class="st3" cx="544.1" cy="117.3" r="9"/>
		<circle class="st3" cx="521.3" cy="154.2" r="9"/>
		<circle class="st3" cx="411.9" cy="68.6" r="9"/>
	</g>
</g>
<g id="milk" class="st0">
	<g class="st1">
		<polygon class="st2" points="94.7,135.4 75.8,123.9 109.8,48 126,66.1 		"/>
		<polygon class="st2" points="204.8,136.1 173.3,66.1 189.7,48.8 223.7,124.7 		"/>
		<path class="st2" d="M180,2h-60.8C104,2,91.6,16.4,91.6,34.1s12.4,32.1,27.6,32.1h6.7V41.4h-6.7c-3.4,0-6.3-3.3-6.3-7.3
			c0-4,2.9-7.3,6.3-7.3H180c3.4,0,6.3,3.3,6.3,7.3c0,4-2.9,7.3-6.3,7.3h-6.7v24.8h6.7c15.2,0,27.6-14.4,27.6-32.1S195.3,2,180,2z"/>
		<path class="st2" d="M197.6,104.5h-6.5l12,28c1,1.4,1.6,3.2,1.6,5.1v128.1c0,4.5-3.3,8.3-7.1,8.3h-95.9c-3.9,0-7.1-3.8-7.1-8.3
			V137.5c0-1.7,0.5-3.3,1.3-4.7h0l12.8-28.4h-7c-15.7,0-28.4,14.8-28.4,33v128.1c0,18.2,12.7,33,28.4,33h95.9
			c15.7,0,28.4-14.8,28.4-33V137.5C226,119.3,213.3,104.5,197.6,104.5z"/>
	</g>
	<g class="st1">
		<polygon class="st3" points="393.7,135.4 374.8,123.9 408.8,48 425,66.1 		"/>
		<polygon class="st3" points="503.8,136.1 472.3,66.1 488.7,48.8 522.7,124.7 		"/>
		<path class="st3" d="M479,2h-60.8c-15.2,0-27.6,14.4-27.6,32.1s12.4,32.1,27.6,32.1h6.7V41.4h-6.7c-3.4,0-6.3-3.3-6.3-7.3
			c0-4,2.9-7.3,6.3-7.3H479c3.4,0,6.3,3.3,6.3,7.3c0,4-2.9,7.3-6.3,7.3h-6.7v24.8h6.7c15.2,0,27.6-14.4,27.6-32.1S494.3,2,479,2z"/>
		<path class="st3" d="M496.6,104.5h-6.5l12,28c1,1.4,1.6,3.2,1.6,5.1v128.1c0,4.5-3.3,8.3-7.1,8.3h-95.9c-3.9,0-7.1-3.8-7.1-8.3
			V137.5c0-1.7,0.5-3.3,1.3-4.7h0l12.8-28.4h-7c-15.7,0-28.4,14.8-28.4,33v128.1c0,18.2,12.7,33,28.4,33h95.9
			c15.7,0,28.4-14.8,28.4-33V137.5C525,119.3,512.3,104.5,496.6,104.5z"/>
	</g>
</g>
<g id="own" class="st0">
	<g class="st1">
		<path class="st2" d="M240.7,298H59.9v-70.5h180.8V298z M82.1,275.8h136.3v-26H82.1V275.8z"/>
		<path class="st2" d="M69.9,168.2C30.6,158,14.5,123.9,18.8,95.5C23,68.1,47,41.3,91.5,39.9C97.7,17.1,119.8,2,149,2
			c0.2,0,0.3,0,0.5,0c26.1,0.1,52.9,13.5,60.2,39c35.3-2.5,60.9,20.4,68.7,46.9c8.3,28.4-2.4,64.1-45,79.9l-7.7-20.9
			c31.2-11.6,36.4-35.7,31.4-52.8c-5.5-18.8-24.8-36.1-54.2-29.7l-13,2.8L189.4,54c-0.7-20.3-21.3-29.6-40-29.7c-0.1,0-0.2,0-0.3,0
			c-13.4,0-36,5.7-37,27.4l-0.5,11.1l-11.1-0.6c-39.6-1.9-56.9,18.5-59.6,36.7c-2.7,18,6.9,40.6,34.7,47.7L69.9,168.2z"/>
		<polygon class="st2" points="218.4,145.5 218.4,166.9 218.4,274.8 218.4,276.6 82.1,276.6 82.1,166.9 82.1,145.5 59.9,145.5 
			59.9,298 240.7,298 240.7,145.5 		"/>
		<path class="st4" d="M240.8,157.4"/>
		<path class="st4" d="M269.9,53.6"/>
		<rect x="116.1" y="145.5" class="st2" width="22.2" height="55.8"/>
		<rect x="160.6" y="145.5" class="st2" width="22.2" height="55.8"/>
	</g>
	<g class="st1">
		<path class="st3" d="M540.7,298H359.9v-70.5h180.8V298z M382.1,275.8h136.3v-26H382.1V275.8z"/>
		<path class="st3" d="M369.9,168.2c-39.3-10.1-55.4-44.2-51.1-72.6c4.2-27.5,28.2-54.2,72.7-55.6C397.7,17.1,419.8,2,449,2
			c0.2,0,0.3,0,0.5,0c26.1,0.1,52.9,13.5,60.2,39c35.3-2.5,60.9,20.4,68.7,46.9c8.3,28.4-2.4,64.1-45,79.9l-7.7-20.9
			c31.2-11.6,36.4-35.7,31.4-52.8c-5.5-18.8-24.8-36.1-54.2-29.7l-13,2.8L489.4,54c-0.7-20.3-21.3-29.6-40-29.7c-0.1,0-0.2,0-0.3,0
			c-13.4,0-36,5.7-37,27.4l-0.5,11.1l-11.1-0.6c-39.6-1.9-56.9,18.5-59.6,36.7c-2.7,18,6.9,40.6,34.7,47.7L369.9,168.2z"/>
		<polygon class="st3" points="518.4,145.5 518.4,166.9 518.4,274.8 518.4,276.6 382.1,276.6 382.1,166.9 382.1,145.5 359.9,145.5 
			359.9,298 540.7,298 540.7,145.5 		"/>
		<path class="st5" d="M540.8,157.4"/>
		<path class="st5" d="M569.9,53.6"/>
		<rect x="416.1" y="145.5" class="st3" width="22.2" height="55.8"/>
		<rect x="460.6" y="145.5" class="st3" width="22.2" height="55.8"/>
	</g>
</g>
<g id="Слой_13">
	<g>
		<path class="st2" d="M199.8,291.9H98.1l-2.2-0.9c-36.2-14.5-63.7-43.4-79.5-83.6c-7.5-19.1-12.1-39.1-12.9-56.4l-0.6-12.7H295
			l-0.5,12.6c-0.2,4.3-5.4,105.2-92.5,140.1L199.8,291.9z M102.9,267.7h92.2c54.1-22.9,69.4-79.7,73.6-105.1H29.1
			c1.5,9.3,4.3,21.7,9.9,36C52.2,232.1,73.6,255.3,102.9,267.7z"/>
		<path class="st2" d="M278.3,146.4h-24.3c0-7,0-28.2-30.3-32l3-24.1C259,94.4,278.3,115.4,278.3,146.4z"/>
		<path class="st6" d="M198.3,86"/>
		<path class="st2" d="M43.7,148.6l-23.9-4.3c3.8-20.9,22.1-48.9,57.5-47.2c4.5-7.5,12.9-17.8,26.2-23.1c13.5-5.4,28.5-4.6,44.9,2.3
			c8.5-4.1,24.5-9.7,40.7-4.2l-7.8,23c-11.7-4-25.6,4.8-25.8,4.8l-5.9,3.9l-6.3-3.1c-12.1-6.1-22.5-7.5-30.8-4.3
			c-11.9,4.6-17,17.7-17,17.9l-3.6,9.4l-9.9-1.7C50.5,116.3,44.3,145.3,43.7,148.6z"/>
		<g>
			<path class="st2" d="M265.4,11.6L265.4,11.6c-4-1.6-8.6,0.2-10.3,4l-56.3,128.5c-1.7,3.9,0.2,8.3,4.2,9.9c4,1.6,8.6-0.2,10.3-4
				l56.3-128.5C271.3,17.7,269.4,13.3,265.4,11.6z"/>
			<path class="st2" d="M206,158.7c-1.5,0-3.1-0.3-4.5-0.9c-3-1.2-5.3-3.5-6.5-6.4c-1.2-2.9-1.1-6,0.1-8.8l56.3-128.5
				c2.6-5.8,9.5-8.6,15.5-6.2c3,1.2,5.3,3.5,6.5,6.4c1.2,2.9,1.1,6-0.1,8.8L217,151.6C215.1,156,210.6,158.7,206,158.7z M262.3,15.1
				c-1.5,0-2.9,0.8-3.6,2.2l-56.3,128.5c-0.4,0.8-0.4,1.7,0,2.6c0.4,0.9,1.1,1.6,2.1,2c2,0.8,4.3-0.1,5.1-1.9l56.3-128.5
				c0.4-0.8,0.4-1.7,0-2.6c-0.4-0.9-1.1-1.6-2.1-2C263.4,15.2,262.9,15.1,262.3,15.1z"/>
		</g>
	</g>
	<g>
		<path class="st3" d="M499.8,291.9H398.1l-2.2-0.9c-36.2-14.5-63.7-43.4-79.5-83.6c-7.5-19.1-12.1-39.1-12.9-56.4l-0.6-12.7H595
			l-0.5,12.6c-0.2,4.3-5.4,105.2-92.5,140.1L499.8,291.9z M402.9,267.7h92.2c54.1-22.9,69.4-79.7,73.6-105.1H329.1
			c1.5,9.3,4.3,21.7,9.9,36C352.2,232.1,373.6,255.3,402.9,267.7z"/>
		<path class="st3" d="M578.3,146.4h-24.3c0-7,0-28.2-30.3-32l3-24.1C559,94.4,578.3,115.4,578.3,146.4z"/>
		<path class="st7" d="M498.3,86"/>
		<path class="st3" d="M343.7,148.6l-23.9-4.3c3.8-20.9,22.1-48.9,57.5-47.2c4.5-7.5,12.9-17.8,26.2-23.1
			c13.5-5.4,28.5-4.6,44.9,2.3c8.5-4.1,24.5-9.7,40.7-4.2l-7.8,23c-11.7-4-25.6,4.8-25.8,4.8l-5.9,3.9l-6.3-3.1
			c-12.1-6.1-22.5-7.5-30.8-4.3c-11.9,4.6-17,17.7-17,17.9l-3.6,9.4l-9.9-1.7C350.5,116.3,344.3,145.3,343.7,148.6z"/>
		<g>
			<path class="st3" d="M565.4,11.6L565.4,11.6c-4-1.6-8.6,0.2-10.3,4l-56.3,128.5c-1.7,3.9,0.2,8.3,4.2,9.9c4,1.6,8.6-0.2,10.3-4
				l56.3-128.5C571.3,17.7,569.4,13.3,565.4,11.6z"/>
			<path class="st3" d="M506,158.7c-1.5,0-3.1-0.3-4.5-0.9c-3-1.2-5.3-3.5-6.5-6.4c-1.2-2.9-1.1-6,0.1-8.8l56.3-128.5
				c2.6-5.8,9.5-8.6,15.5-6.2c3,1.2,5.3,3.5,6.5,6.4c1.2,2.9,1.1,6-0.1,8.8L517,151.6C515.1,156,510.6,158.7,506,158.7z M562.3,15.1
				c-1.5,0-2.9,0.8-3.6,2.2l-56.3,128.5c-0.4,0.8-0.4,1.7,0,2.6c0.4,0.9,1.1,1.6,2.1,2c2,0.8,4.3-0.1,5.1-1.9l56.3-128.5
				c0.4-0.8,0.4-1.7,0-2.6c-0.4-0.9-1.1-1.6-2.1-2C563.4,15.2,562.9,15.1,562.3,15.1z"/>
		</g>
	</g>
</g>
</svg>
