<svg id="Layer_1" data-name="Layer 1" xmlns="http://www.w3.org/2000/svg" viewBox="0 0 1762.65 326.86"><defs><style>.cls-1{fill:#fff;}</style></defs><title>naakcii_logo</title><path class="cls-1" d="M386.78,391.57l-25.47-37,3.51-44.73-40.59-19.33L304.84,250,260,253.53,222.9,228.14l-37.08,25.39L141,250l-19.38,40.49L81,309.85l3.51,44.73L59,391.57l25.46,37L81,473.28l40.6,19.34L141,533.1l44.86-3.5L222.9,555,260,529.6l44.85,3.5,19.39-40.48,40.59-19.34-3.51-44.73ZM222.9,524.39A132.83,132.83,0,1,1,355.73,391.57,132.83,132.83,0,0,1,222.9,524.39Z" transform="translate(-59.03 -228.14)"/><polygon class="cls-1" points="140.67 165.99 186.32 165.99 163.26 103.91 140.67 165.99"/><path class="cls-1" d="M222.9,275.8A115.77,115.77,0,1,0,338.67,391.57,115.77,115.77,0,0,0,222.9,275.8Zm47.9,184.52-14.61-38H189.31l-13.81,38H139.66L204.83,293h35.72l67,167.3Z" transform="translate(-59.03 -228.14)"/><path class="cls-1" d="M574.39,458.72H547.23V389H474.08v69.68H446.81V295.35h27.27v71.81h73.15V295.35h27.16Z" transform="translate(-59.03 -228.14)"/><path class="cls-1" d="M679.75,458.72c-1-3.07-1.78-6.06-2.42-9A65.72,65.72,0,0,1,676,441a48.15,48.15,0,0,1-14.75,14.31,37.56,37.56,0,0,1-20.48,5.78q-19,0-29.12-9.76T601.54,424.5q0-17.61,13.91-27.44t39.16-9.81h21.21V376.59q0-9.54-5.61-14.92t-16.05-5.39q-9.31,0-14.81,4.49a14.25,14.25,0,0,0-5.5,11.55H607.6l-.11-.67q-.79-14.36,12.84-25.47t35.52-11.11q21.2,0,34.22,10.77t13,31v54a100,100,0,0,0,1,14.42,76.76,76.76,0,0,0,3.26,13.52ZM646.31,439.2A34.29,34.29,0,0,0,664.88,434q8.25-5.16,10.94-11.79V404.3H654.16q-11.89,0-18.62,5.89t-6.74,13.86q0,7,4.55,11.05T646.31,439.2Z" transform="translate(-59.03 -228.14)"/><path class="cls-1" d="M823.7,420.57h-64l-13,38.15h-27.6l60-163.37H805l59.36,163.37H836.6Zm-56.1-22.78H816L792.28,328h-.67Z" transform="translate(-59.03 -228.14)"/><path class="cls-1" d="M922.44,410.7H908.53v48H881.37V337.32h27.16v48.47h12.12l33.43-48.47h33.78l-44,58.12,47.69,63.28H956.1Z" transform="translate(-59.03 -228.14)"/><path class="cls-1" d="M1004.69,337.32H1032v99.52h47.35V337.32h27.27v99.52h16.27v61.83h-27.27V458.72h-90.88Z" transform="translate(-59.03 -228.14)"/><path class="cls-1" d="M1217.65,337.32h27.15v121.4h-27.15V378.16l-.68-.23-46.9,80.79h-27.15V337.32h27.15v80.45l.68.22Z" transform="translate(-59.03 -228.14)"/><path class="cls-1" d="M1347.8,337.32H1375v121.4H1347.8V378.16l-.67-.23-46.9,80.79h-27.15V337.32h27.15v80.45l.67.22Z" transform="translate(-59.03 -228.14)"/><path class="cls-1" d="M1414.11,461.85c-8.72,0-14.84-6.34-14.84-15.53,0-8.77,6.12-15.49,14.84-15.49a15.06,15.06,0,0,1,15.27,15.49C1429.38,455.51,1422.88,461.85,1414.11,461.85Z" transform="translate(-59.03 -228.14)"/><path class="cls-1" d="M1558.67,317.23h-75.29v38.71h34.56q27.15,0,42.64,14.08t15.48,37q0,23-15.54,37.36t-42.58,14.36h-62.5V295.35h103.23Zm-75.29,60.59v59h34.56q15.15,0,23-8.73t7.85-21.39a28.86,28.86,0,0,0-7.85-20.55q-7.86-8.35-23-8.35Z" transform="translate(-59.03 -228.14)"/><path class="cls-1" d="M1650.45,461.08q-25.8,0-41.12-16.89T1594,400.82v-4.48q0-26.49,15.21-43.93t38.09-17.34q24.57,0,37.64,14.87T1698,389.83v16h-75.73l-.23.56q.68,14.43,8.47,23.6t21.6,9.17a58.22,58.22,0,0,0,18.85-2.7,61.34,61.34,0,0,0,15.15-7.74l8.75,17.88q-6.84,6.09-18.17,10.26T1650.45,461.08ZM1647.31,357a20.47,20.47,0,0,0-16.61,8q-6.51,8-8.08,20.36l.23.56H1671v-2.8q0-11.57-5.89-18.85T1647.31,357Z" transform="translate(-59.03 -228.14)"/><path class="cls-1" d="M1821.67,337.32v121.4h-27.15V359.2h-35.35V389q0,36-10.21,52.85t-35,16.91h-5.84l.12-23h4q11.57,0,15.6-10.32t4-36.36V337.32Z" transform="translate(-59.03 -228.14)"/></svg>