<?xml version="1.0" encoding="utf-8"?>
<!-- Generator: Adobe Illustrator 21.1.0, SVG Export Plug-In . SVG Version: 6.00 Build 0)  -->
<svg version="1.1" id="Слой_1" xmlns="http://www.w3.org/2000/svg" xmlns:xlink="http://www.w3.org/1999/xlink" x="0px" y="0px"
	 viewBox="0 0 300.2 240" style="enable-background:new 0 0 300.2 240;" xml:space="preserve">
<style type="text/css">
	.st0{fill:#F2F2F2;}
	.st1{fill:none;stroke:#7F7F7F;stroke-width:3;stroke-miterlimit:10;}
	.st2{fill:#7F7F7F;}
	.st3{fill:#FF5252;}
	.st4{fill:#C4C4C4;}
	.st5{fill:#FFFFFF;}
	.st6{fill:#939393;}
	.st7{fill:#FFFFFF;stroke:#7F7F7F;stroke-width:3;stroke-miterlimit:10;}
</style>
<path class="st0" d="M287.7,240.4H11.5c-6.6,0-12-5.4-12-12v-216c0-6.6,5.4-12,12-12h276.2c6.6,0,12,5.4,12,12v216
	C299.7,235,294.3,240.4,287.7,240.4z"/>
<g>
	<path class="st1" d="M134,129.8c-6.9-0.8-14.4-27.5,16.5-30.8c7.9-20.6,35.6-21.1,42.9,0c28.7,2.2,29.3,26.4,18.1,34.6"/>
	<g>
		<g>
			<path class="st2" d="M189.8,124.3c5.9-1.3,11.8-2.7,17.6-4c1.9-0.4,1.1-3.3-0.8-2.9c-5.9,1.3-11.8,2.7-17.6,4
				C187.1,121.8,187.9,124.7,189.8,124.3L189.8,124.3z"/>
		</g>
	</g>
	<g>
		<g>
			<path d="M176.2,115c0-6,0-12,0.1-18.1c0-1.9-3-1.9-3,0c0,6,0,12-0.1,18.1C173.2,116.9,176.2,116.9,176.2,115L176.2,115z"/>
		</g>
	</g>
	<g>
		<g>
			<path class="st3" d="M157.7,121.4c-5.9-1.3-11.8-2.7-17.6-4c-1.9-0.4-2.7,2.5-0.8,2.9c5.9,1.3,11.8,2.7,17.6,4
				C158.8,124.7,159.6,121.8,157.7,121.4L157.7,121.4z"/>
		</g>
	</g>
	<path class="st4" d="M178,73.5c0-2.2,4,12.2,4.6,14.3c0.6,2.1,2.9,13.6,3.4,15.2c0.4,1.6,3,19,3,19s-0.3,6.8,0,7.7
		c0.3,0.8,0.6,7-0.7,8.2s-34.5,5.3-35.4,5.3c-0.9,0-7.4-20.4-7.4-20.4s2.6-9.1,1-11.7c-1.6-2.6-0.1-7.4-0.5-7.9
		c-6-6.6-7.9-51.8,9.4-54.1C155.3,49.1,168.6,50,178,73.5z"/>
	<polygon class="st5" points="152.5,106.5 161.2,107.4 168.5,106.5 180.2,112.5 180.2,115.7 172.1,117 159.5,117 154.4,114
		150.9,108.5 	"/>
	<path class="st2" d="M173.4,175.6c-4.2-0.6-8.7-4-13.1-10.1c-6.6-9.1-12.3-23.2-16.1-39.8c-8.1-35.2-5-69.3,7-77.5
		c12-8.2,27.8,13,35.9,48.2l0,0c3.8,16.5,5.3,33.6,4.1,48c-1.2,15-5.2,25.5-11.1,29.5C178,175.3,175.8,175.9,173.4,175.6z
		 M157.3,51.2c-1.8-0.3-3.5,0.1-5.1,1.2c-10.1,6.9-12.4,39.5-5.1,71.3c3.7,15.9,9.1,29.5,15.4,38.1c6,8.3,11.9,11.1,16.7,7.8
		c4.8-3.3,8-12.3,9.1-25.4c1.1-13.7-0.3-30-3.9-45.9l0,0C178.2,71.6,166.8,52.5,157.3,51.2z"/>
	<path class="st2" d="M165.1,143.6c-3-0.4-5.7-1.5-7.4-3.6c-1.5-1.8-2.3-4.2-2.4-7.1l-0.1-3.8l2.3,1.3c2.5,1.4,6.3,1.2,10.2,1
		c6.6-0.3,13.3-0.7,16.7,6.1l1.5,3l-2.6,0.8C178.5,142.8,171.1,144.5,165.1,143.6z M159.5,136C159.5,136,159.5,136,159.5,136
		c2.7,3.7,10,4.3,20.1,1.8c-3.1-2.1-7.6-1.9-12.1-1.7C164.6,136.3,161.9,136.4,159.5,136z"/>
	<path class="st2" d="M160.2,117.9c-5.3-0.8-9.9-3.4-11.3-10.8l-0.8-4.3l2.8,1.2c2.1,0.9,5.6,0.7,9.4,0.5
		c8.5-0.5,19.1-1.1,21.9,10.3l1.1,4.6l-3.1-1.4c-1.9-0.8-5.3-0.5-9-0.2C167.6,118.1,163.7,118.4,160.2,117.9z M153.4,109.2
		c3.5,5.2,11.4,4.5,18,3.9c2.3-0.2,4.3-0.4,6.2-0.3c-3.6-4.5-10.8-4.1-17.4-3.7C157.6,109.2,155.3,109.4,153.4,109.2z"/>
	<path class="st5" d="M146.4,79.7c0.4,0,9.3,0.8,10.5,0.8s10.7,0,10.7,0l3.6,3l1.4,2.4l-5,2.8L157.2,90l-7.4-2.8l-3-3.8L146.4,79.7z
		"/>
	<path class="st2" d="M156.2,91.5c-5.6-0.8-10-4-11.7-11l-1.1-4.5l3.1,1.3c2.3,1,6.1,0.8,10,0.5c8-0.4,16.2-0.9,17.9,7.5l0.5,2.4
		l-1.7,0.7C167.5,90.8,161.4,92.2,156.2,91.5z M149,82.5c4.1,6,13.3,5.3,21.4,2.3c-2.5-3.1-8.7-2.7-14.2-2.4
		C153.7,82.6,151.2,82.7,149,82.5z"/>
	<path class="st4" d="M113.6,90.6c0.8-0.2,3.3-1.5,4.5-2.2s8.6-1.9,8.6-1.9l9.1-0.6c0,0,4.3,2.4,5.9,2.3s5.7,2.3,5.7,2.3l1.1,2.8
		l-6.3,3.7l-9.6,1.3h-9.8l-7.3-2.5l-3.1-2.5L113.6,90.6z"/>
	<g>
		<path class="st6" d="M114.3,94.7l5.9,2.8l11.1,1.2l10.9-1.5l7.6-1.5l0.1,12.7l-2.1,9.1l-1.6,11.6c0,0,0.7,4.7,1,5.1
			s1.8,10.1,1.8,10.6c0,0.5-24.2,7-24.2,7s-18.3-3.7-18-5.2s7.5-12.6,7.7-13.1c0.2-0.5,0.7-10.1,0.7-10.1s0-5.4,0-5.9
			s-3.3-12-3.3-12v-7l0.2-5.1L114.3,94.7z"/>
		<path class="st2" d="M113.8,179.9l-3.3-2.1v-39.3l0.3-0.4c7.2-11.2,0.5-25.5,0.5-25.7l-0.2-0.7c0-1.7-0.3-16.9,0-19.4
			c0.1-0.7,0.3-2.7,8.4-9.9c0.8-0.7,1.3-1.5,1.6-2.5l0.8-2.9l-1.4-1.6c-1.1-1.2-1.7-2.7-1.7-4.2v-7h3.3v7c0,0.7,0.3,1.5,0.8,2
			l2.7,2.9l-1.3,4.7c-0.4,1.6-1.3,3-2.6,4.1c-5.4,4.8-7.1,7.2-7.3,7.8c-0.2,1.9-0.1,13.7,0,18.6c1.1,2.4,6.7,16.4-0.6,28.1V179.9z"
			/>
		<path class="st2" d="M151.4,178.3l-3.3,2.2v-40.3c-7.3-11.7-1.6-25.7-0.6-28.1c0.1-4.9,0.2-16.8,0-18.6c-0.1-0.5-1.8-2.9-7.3-7.8
			c-1.2-1.1-2.1-2.5-2.6-4.1l-1.3-4.7l2.7-2.9c0.5-0.5,0.8-1.3,0.8-2v-7l3.2-0.3l0.1,7.3c0,1.6-0.6,3.1-1.7,4.2l-1.4,1.6l0.8,2.9
			c0.3,1,0.8,1.8,1.6,2.5c8.1,7.2,8.3,9.1,8.4,9.9c0.3,2.5,0,17.7,0,19.4l-0.2,0.7c-0.1,0.1-6.7,14.6,0.5,25.7l0.3,0.4V178.3z"/>
		<path class="st2" d="M130.9,70.2c-5.8,0-12.1-1.7-12.1-5.6s6.3-5.6,12.1-5.6c5.8,0,12.1,1.7,12.1,5.6S136.8,70.2,130.9,70.2z
			 M130.9,62.4c-5.6,0-8.6,1.7-8.8,2.3c0.2,0.6,3.2,2.2,8.8,2.2c5.5,0,8.5-1.6,8.8-2.3C139.5,64,136.5,62.4,130.9,62.4z"/>
		<path class="st2" d="M141.5,68.6c-0.2,1.1-1.6,2.6-1.6,3c0,1.5-3.5,3.9-8.6,3.9c-5.1,0-9.2-2.3-9.2-3.7c0-0.1-2.4-1.2-2.4,0.1
			c0,3.9,5,6.9,11.7,6.9c6.6,0,11.7-3,11.7-6.9C142.9,70.7,142.4,69.6,141.5,68.6z"/>
		<path class="st2" d="M131.3,100.1c-8.1,0-16.3-1.8-18.7-5.4c-0.5-0.7-0.8-1.5-0.8-2.3c0-10.1,38-10.1,38,0.1
			C149.8,97.5,141,100.1,131.3,100.1z M131.3,88c-10.1,0-16.2,2.9-16.2,4.4s6.2,4.4,16.2,4.4c10.1,0,15.1-3.1,15.1-4.7
			S141.3,88,131.3,88z"/>
		<path class="st2" d="M148.4,107.4c-1,0.7,0.1,0.4-0.6,1.1c1.6,0.6-0.2,2.1-0.1,2.5c-0.1,1.1-5.9,3.8-16.6,3.8
			c-10.7,0-16.5-2.6-16.6-3.8c0-0.3-1.3-1.3-0.4-1.7c-0.1-1.7,1.2-1.2-1.3-1.2c-1,0.8-1.6,1.8-1.6,2.9c0,4.8,10.3,7,19.9,7
			c9.6,0,19.9-2.2,19.9-7C150.9,109.6,149.9,108.4,148.4,107.4z"/>
		<path class="st2" d="M131,147.6c-7.6,0-20.4-1.3-20.4-6.4c0-5,12.8-6.4,20.4-6.4s20.4,1.3,20.4,6.4
			C151.4,146.3,138.6,147.6,131,147.6z M131,138.1c-10.3,0-16.6,2.1-17.2,3.2c0.6,0.9,6.8,2.9,17.2,2.9c9.9,0,16.1-1.9,17.1-3.1
			C147.1,140.1,140.9,138.1,131,138.1z"/>
		<path class="st2" d="M131,186.4c-10.2,0-20.4-2.9-20.4-8.5c0-11.2,40.9-11.2,40.9,0C151.4,183.4,141.1,186.4,131,186.4z
			 M131,172.6c-10.5,0-17.1,3.1-17.1,5.2c0,2.1,6.7,5.2,17.1,5.2s17.1-3.1,17.1-5.2C148.1,175.7,141.5,172.6,131,172.6z"/>
		<rect x="123.9" y="67.8" class="st2" width="3.3" height="8"/>
		<rect x="129.3" y="67.8" class="st2" width="3.3" height="8"/>
		<rect x="134.7" y="67.8" class="st2" width="3.3" height="8"/>
	</g>
	<g>
		<path class="st5" d="M111.5,110.2c1-1.3,3.6-5.5,4.3-6.1c0.7-0.6,3.8-3.6,5-3.8c1.2-0.2,4.4,0,4.4,0s1.2,2,1.3,2.7
			s0.1,3.7-0.6,4.3c-0.7,0.6-2.1,2.3-2.4,2.9c-0.3,0.6-5.6,2.9-6.1,2.6s-4.9-0.2-4.9-0.2L111.5,110.2z"/>
		<path class="st5" d="M112.3,113.5c4.7-1.2,8.1-1.4,10.4-1.8c2.3-0.5,6.7,0.6,7.6,1.8c0.9,1.2,3.7,4.3,4.7,6.4c1,2.1,1.8,6,1.4,8.1
			c-0.3,2.1-1.8,6-1.8,7.7c0,1.7-1.3,4.7-2.6,5.4c-1.2,0.7-41.7-6-43.1-6c-1.3,0-2.6-12.2-2.6-12.8s7.7-9,7.7-9L112.3,113.5z"/>
		<path d="M116.2,112.5"/>
		<path class="st2" d="M119.4,158.8c-3,0-5.6-0.8-7.2-1.3c-0.4-0.1-0.9-0.3-1.2-0.3c-0.2,0-0.7,0.2-1.1,0.3
			c-2.7,0.9-7.7,2.4-12.8-0.5c-5-2.8-8.6-9.4-10.9-19.4c-2.5-11.2-1.3-19.1,3.5-23.5c5.1-4.7,13.3-4.2,18.8-2.4
			c1.1,0.4,2.6,0.5,3.4,0.5c2.3-1,12.6-5.2,19.6-0.2c5,3.6,7,10.8,5.7,21.6c-1.3,11.7-4.8,19.4-10.1,22.9
			C124.5,158.3,121.9,158.8,119.4,158.8z M111,153.4c0.6,0,1.3,0.2,2.3,0.5c2.8,0.9,7.5,2.3,11.7-0.4c4.4-2.9,7.2-9.7,8.5-20.2
			c1.1-9.3-0.3-15.4-4.2-18.1c-5.9-4.2-16.1,0.7-16.2,0.7l-0.4,0.2l-0.4,0c-0.1,0-2.8,0-4.9-0.7c-3.6-1.2-10.9-2.2-15.1,1.6
			c-3.8,3.4-4.6,10.3-2.4,19.9c2,8.9,5.1,14.6,9.1,17c3.7,2.1,7.5,0.9,9.8,0.2C109.7,153.6,110.4,153.4,111,153.4z"/>
		<path class="st2" d="M112.9,114.3l-3.7-0.3c0.5-5.3,4.6-15.4,16.8-15.4h1.3l0.4,1.3c2.3,7-1.7,11.7-4.1,13.3l-2-3.2
			c0.4-0.3,3.9-2.7,2.9-7.6C114,103.3,112.9,113.9,112.9,114.3z"/>
		<path class="st2" d="M107,114c-0.3-2.3-1.1-10.2,1.4-13c0.7-0.8,1.6-1.2,2.6-1.2c1.9,0,3,0.9,3.6,1.6c1.6,2.1,0.9,5.3,0.8,5.7
			l-3.6-0.9c0.2-0.7,0.2-2-0.1-2.5c-0.1-0.1-0.2-0.2-0.5-0.2c-0.8,1-1,5.6-0.4,10L107,114z"/>
		<path class="st2" d="M100.4,113.5c-0.4-0.5-3.9-5.4-2.4-9.9l0.4-1.3h1.3c7,0,10,3.7,10.2,3.8l-2.9,2.3l1.5-1.2l-1.4,1.2
			c-0.1-0.1-1.7-1.9-5.7-2.4c0.1,2,1.4,4.3,2,5.1L100.4,113.5z"/>
		<circle class="st2" cx="124.7" cy="126.3" r="1.5"/>
		<circle class="st2" cx="98" cy="126.3" r="1.5"/>
		<path class="st2" d="M109.2,130.5c-1.6,0-2.9-1.9-3-2.1l1-0.7c0.3,0.4,1.2,1.6,2,1.5c0.6,0,1.1-0.8,1.4-1.4l0.5-1.1l0.6,1.1
			c0.5,0.9,1,1.4,1.6,1.4c0.8,0.1,1.8-0.8,2-1.2l1,0.8c-0.1,0.1-1.4,1.8-3.1,1.7c-0.7-0.1-1.4-0.5-2-1.2c-0.5,0.8-1.2,1.2-1.9,1.2
			C109.3,130.5,109.3,130.5,109.2,130.5z"/>
	</g>
	<path class="st7" d="M220.7,147.8H78.5c-1.9,0-3.5-1.6-3.5-3.5v-6.7c0-1.9,1.6-3.5,3.5-3.5h142.2c1.9,0,3.5,1.6,3.5,3.5v6.7
		C224.2,146.3,222.6,147.8,220.7,147.8z"/>
	<path class="st7" d="M195.9,194.3h-90.6c-5.7,0-10.6-2.9-11.6-6.9l-10-39.5h135.4l-11.8,39.8C206.3,191.5,201.4,194.3,195.9,194.3z
		"/>
	<path class="st7" d="M194.5,95.7l-46.8,44.5c-1,1-2.7,0.9-3.6-0.1l-3.4-3.6c-1-1-0.9-2.7,0.1-3.6l46.8-44.5c1-1,2.7-0.9,3.6,0.1
		l3.4,3.6C195.6,93,195.6,94.7,194.5,95.7z"/>
</g>
</svg>
