<svg xmlns="http://www.w3.org/2000/svg" viewBox="0 0 487.79 550.8"><title>Ресурс 1</title><path d="M128.88,282.23c0-14.83-10.3-23.68-28.47-23.68-7.41,0-12.44.71-15.07,1.43V307.6a56.5,56.5,0,0,0,12.19.95C116.92,308.55,128.88,298.74,128.88,282.23Z" style="fill:#fff"/><path d="M241.37,259a76,76,0,0,0-16.52,1.43V366c3.12.73,8.14.73,12.69.73,33,.23,54.55-17.95,54.55-56.47C292.34,276.72,272.71,259,241.37,259Z" style="fill:#fff"/><path d="M456.92,197H443.7V133.2a9.31,9.31,0,0,0-.12-1.2,10.6,10.6,0,0,0-2.56-7L334.82,3.69s-.06,0-.08-.08a10.72,10.72,0,0,0-2.15-1.8c-.23-.15-.46-.28-.71-.42a11.13,11.13,0,0,0-2.13-.9c-.2-.06-.38-.14-.58-.19A10.77,10.77,0,0,0,326.69,0H65.7A21.62,21.62,0,0,0,44.1,21.6V197H30.87A30.87,30.87,0,0,0,0,227.89V388.43A30.88,30.88,0,0,0,30.87,419.3H44.1V529.2a21.62,21.62,0,0,0,21.6,21.6H422.1a21.63,21.63,0,0,0,21.6-21.6V419.3h13.23a30.88,30.88,0,0,0,30.87-30.87V227.89A30.87,30.87,0,0,0,456.92,197ZM65.7,21.6H315.89V132.12a10.8,10.8,0,0,0,10.8,10.8H422.1V197H65.7ZM330.86,309c0,30.88-11.24,52.17-26.82,65.33-17,14.12-42.82,20.81-74.4,20.81a317,317,0,0,1-41.4-2.39V234.37c13.4-2.15,30.88-3.35,49.3-3.35,30.61,0,50.48,5.51,66,17.23C320.32,260.69,330.86,280.55,330.86,309ZM49.2,393.5V234.37c11.24-1.9,27-3.35,49.3-3.35,22.49,0,38.53,4.31,49.29,12.93,10.29,8.13,17.21,21.53,17.21,37.33s-5.25,29.2-14.83,38.29c-12.44,11.73-30.87,17-52.41,17a91.31,91.31,0,0,1-12.43-.72V393.5H49.2ZM422.1,523.35H65.7V419.3H422.1V523.35Zm31.3-261.23h-62V299h57.91v29.67H391.4V393.5H354.81V232.22h98.58Z" style="fill:#fff"/></svg>