<?xml version="1.0" encoding="utf-8"?>
<!-- Generator: Adobe Illustrator 21.0.2, SVG Export Plug-In . SVG Version: 6.00 Build 0)  -->
<svg version="1.1" id="Layer_1" xmlns="http://www.w3.org/2000/svg" xmlns:xlink="http://www.w3.org/1999/xlink" x="0px" y="0px"
	 viewBox="0 0 64 64" style="enable-background:new 0 0 64 64;" xml:space="preserve">
<style type="text/css">
	.st0{fill:#FFFFFF;}
</style>
<g>
	<g>
		<g>
			<g>
				<polygon class="st0" points="47,0 47,10 56,10 				"/>
			</g>
		</g>
	</g>
	<g>
		<g>
			<g>
				<path class="st0" d="M21.7,32.4c0,0,0.7-0.3,2.1-2.5c-0.8,0.5-1.3,1-1.6,1.4c-0.4,0.4-0.7,0.9-0.7,0.9L21.7,32.4
					C21.6,32.5,21.6,32.5,21.7,32.4z"/>
			</g>
		</g>
		<g>
			<g>
				<path class="st0" d="M23.3,45.7c-0.3-0.2-0.8-0.3-1.5-0.3h-1.7v2.9h1.7c0.3,0,0.5,0,0.7-0.1s0.4-0.1,0.6-0.2
					c0.2-0.1,0.3-0.2,0.4-0.4s0.2-0.4,0.2-0.7s0-0.5-0.1-0.7C23.6,45.9,23.5,45.8,23.3,45.7z"/>
			</g>
		</g>
		<g>
			<g>
				<path class="st0" d="M42.5,27.6c0-0.1,0-0.2-0.2-0.3c-0.2-0.1-0.9-0.5-2.4-0.7c0.9,0.8,1.3,0.9,1.7,1S42.4,27.7,42.5,27.6z"/>
			</g>
		</g>
		<g>
			<g>
				<path class="st0" d="M30.8,12.9c0-0.6-0.2-1-0.3-1.2c0,0.2-0.1,0.4-0.1,0.6c0,0.7,0,1.5,0.2,2.3C30.8,13.8,30.8,13.3,30.8,12.9z
					"/>
			</g>
		</g>
		<g>
			<g>
				<path class="st0" d="M30.9,24.2c0.7-0.1,1.4-0.3,2.1-0.4l-0.1-0.1H33c-0.6-0.7-1.1-1.3-1.6-1.9L31.2,22v-0.1
					c-0.2,0.5-0.4,1-0.7,1.5c-0.1,0.3-0.2,0.5-0.3,0.7h0.1l-0.1,0.2C30.4,24.3,30.6,24.3,30.9,24.2z"/>
			</g>
		</g>
		<g>
			<g>
				<path class="st0" d="M43,14V0H10C8.9,0,8,0.9,8,2.1V62c0,1.1,0.9,2.1,2,2.1h43.7c1.1,0,2.3-0.9,2.3-2.1V14H43z M20,29.2
					c0.8-0.9,2.4-2.4,6.2-3.8c0.5-1,1-2.1,1.5-3.2c0.6-1.2,1-2.4,1.4-3.3c-1.5-2.6-1.8-4.5-1.7-6.7c0.1-2.7,1.9-3.7,3.2-3.7
					c0.8,0,3,0.8,3.2,4.2c0.1,1.3-0.2,2.8-1.2,5.8c0.8,1.1,1.8,2.3,3.1,3.8c0.4,0.4,0.8,0.9,1.1,1.2c0.3,0,0.6,0,0.9,0
					c2.7,0,4.9,0.5,6.2,1.3c1.9,1.2,1.8,3.1,1.4,4c-0.2,0.7-1.2,1.9-3.1,1.9c-0.4,0-0.9-0.1-1.3-0.2c-1.5-0.4-2.6-1.1-5.3-3.9
					c-1.3,0.1-2.6,0.3-4.1,0.6c-1.1,0.2-2.2,0.5-3.1,0.8c-2.9,5.7-4.5,6.9-5.5,7.3c-0.5,0.2-0.9,0.3-1.3,0.3c-1.4,0-2.2-0.9-2.6-1.6
					C18.4,33,18,31.2,20,29.2z M25.2,49.4c-0.8,0.6-1.8,0.9-3.2,0.9h-1.9v4.8h-2.6V43H22c0.6,0,1.2,0.1,1.7,0.2
					c0.5,0.1,1,0.3,1.4,0.6s0.7,0.7,0.9,1.1s0.3,1,0.3,1.7C26.4,47.9,26,48.8,25.2,49.4z M36.9,51.6c-0.2,0.7-0.6,1.4-1.1,1.9
					c-0.9,1.1-2.3,1.6-4.1,1.6h-4V43h4c1,0,1.8,0.1,2.5,0.4c0.7,0.3,1.3,0.7,1.7,1.2c0.5,0.5,0.8,1.2,1,1.9s0.3,1.6,0.3,2.5
					C37.2,50,37.1,50.9,36.9,51.6z M46.5,45.2h-5.3v2.5h3.9v2.2h-4v5.2h-2.6V43h7.9L46.5,45.2L46.5,45.2z"/>
			</g>
		</g>
		<g>
			<g>
				<path class="st0" d="M33.9,46.3c-0.5-0.6-1.2-1-2.2-1h-1.4V53h1.3c0.6,0,1.1-0.1,1.5-0.3s0.7-0.5,0.9-0.8
					c0.2-0.4,0.4-0.8,0.5-1.2c0.1-0.5,0.1-1,0.1-1.5c0-0.6-0.1-1.2-0.2-1.7C34.3,47,34.1,46.6,33.9,46.3z"/>
			</g>
		</g>
	</g>
</g>
</svg>
