<?xml version="1.0" encoding="utf-8"?>
<!-- Generator: Adobe Illustrator 21.0.2, SVG Export Plug-In . SVG Version: 6.00 Build 0)  -->
<svg version="1.1" id="Слой_1" xmlns="http://www.w3.org/2000/svg" xmlns:xlink="http://www.w3.org/1999/xlink" x="0px" y="0px"
	 viewBox="0 0 277.3 130.1" style="enable-background:new 0 0 277.3 130.1;" xml:space="preserve">
<style type="text/css">
	.st0{fill:#FFFFFF;}
</style>
<title>Ресурс 1</title>
<g>
	<path class="st0" d="M277.3,45.4v18.8c0,0.2-0.1,0.3-0.1,0.5c-0.4,2.7-0.6,5.4-1.1,8c-2,11-8,19.2-17.9,24.5
		c-5,2.6-10.3,4.5-15.7,5.7c-6.7,1.5-13.5,2.4-20.3,2.9c-6,0.5-12,0.9-17.9,1.3c-6.8,0.4-13.7,0.9-20.5,1.2
		c-8.6,0.4-17.2,0.6-25.9,0.8c-5.5,0.1-11,0.1-16.5,0.1c-4.8,0-9.6,0.1-14.3,0c-10.4-0.2-20.8-0.5-31.2-0.8
		c-4.2-0.1-8.5-0.4-12.7-0.6c-1.2-0.1-2.4-0.1-3.6-0.1c-1.5,0.3-2.8,1.1-3.7,2.3c-5.7,6.3-11.5,12.7-17.2,19
		c-0.3,0.3-0.6,0.6-0.9,0.8c-0.7,0.5-1.7,0.2-2.1-0.5c-0.1-0.2-0.2-0.3-0.2-0.5c-0.1-0.4-0.1-0.8-0.1-1.2c0-0.7,0.1-1.5,0.1-2.2
		c0-4.7,0-9.3,0-13.9c0-0.9,0-1.8,0-2.8c0-1.7-1.3-3.2-3.1-3.4c-0.4-0.1-0.8-0.1-1.2-0.2c-3.5-0.3-7.1-0.5-10.6-0.9
		c-5.4-0.6-10.7-1.9-15.8-3.8c-4.8-1.8-9.1-4.4-12.9-7.9C6.7,87.6,3.2,81.1,1.9,74c-0.7-3.5-1.1-7.1-1.3-10.7
		C0,57.4-0.1,51.6,0.2,45.7c0.3-4.6,1.1-9.2,2.5-13.7c1.6-5.3,4.4-10.1,8.1-14.1c5.1-5.4,11.4-8.5,18.4-10.3c4.6-1.1,9.3-1.9,14-2.4
		c4.4-0.6,8.9-1.2,13.3-1.7c4.1-0.5,8.3-0.9,12.4-1.2c4.6-0.4,9.1-0.7,13.7-1c6.7-0.3,13.3-0.7,19.9-0.8C113.2,0.2,123.8,0,134.4,0
		c18-0.1,36.1,0.4,54.1,1.3c7.6,0.3,15.3,0.7,23,1.2c5.4,0.4,10.8,0.9,16.1,1.7c6.3,0.9,12.6,2.1,18.9,3.2c4.9,0.8,9.6,2.6,13.7,5.3
		c10.5,6.8,15.6,16.7,16.7,29C277.1,42.9,277.2,44.1,277.3,45.4z M147.9,55.9L147.9,55.9c0.1,6.8,0.1,13.7,0.1,20.5
		c0,1.2,0.5,2.4,1.4,3.3c1.1,1.1,2.6,1.7,4.2,1.7c1,0.1,2-0.3,2.7-0.9c0.5-0.5,0.9-1,1.4-1.5s0.9-0.6,1.6-0.2
		c1.2,0.7,2.4,1.4,3.7,1.9c2.6,1.1,5.4,1.4,8.1,0.8c3-0.6,5.7-2.2,7.8-4.6c1.2-1.3,2.1-2.7,2.9-4.3c1.4-2.7,2.3-5.7,2.5-8.8
		c0.2-2.1,0-4.2-0.5-6.2c-0.5-1.7-1-3.5-1.7-5.1c-0.7-1.8-1.7-3.5-3-5c-1.8-2.1-4.2-3.6-6.8-4.4c-2.4-0.7-5-0.7-7.4-0.2
		c-1.5,0.3-2.9,0.8-4.4,1.2c-1,0.3-1.6,0-1.9-1.1c-0.1-0.5-0.2-1-0.2-1.6c-0.1-2.4,0.2-4.8-0.2-7.2c-0.2-1.6-1.1-2.9-2.6-3.6
		c-1-0.4-2.2-0.5-3.3-0.3c-1.6,0.2-3,1.2-3.6,2.6c-0.5,1.2-0.8,2.4-0.8,3.7C147.9,43,147.9,49.5,147.9,55.9z M109,62
		c-0.1-0.1-0.1-0.1-0.1-0.1l-4.1-11.4c-1.6-4.4-3.2-8.7-4.8-13.1c-0.5-1.9-1.3-3.7-2.3-5.4c-0.8-1.3-2.2-2-3.7-2
		c-1.2,0.1-2.4,0.4-3.5,1.1c-0.8,0.5-1.5,1.2-1.9,2c-0.6,1.5-0.6,3.1,0,4.6c1.2,3.3,2.5,6.6,3.8,9.9s2.5,6.4,3.8,9.7
		s2.5,6.3,3.7,9.5c1,2.4,1.9,4.9,2.9,7.3c0.6,1.4,1.1,2.9,1.8,4.3c0.8,1.9,2.8,3,4.8,2.8c2-0.1,3.8-1.3,4.6-3.2c0.9-2,1.7-4,2.5-6
		c1.2-2.9,2.3-5.9,3.4-8.8c1-2.5,1.9-5,2.8-7.4s2-5,3-7.6c1.1-2.8,2.2-5.7,3.3-8.5c0.8-1.6,1.2-3.4,1.1-5.2c0-1.2-0.6-2.4-1.6-3.1
		c-1.1-0.7-2.3-1.2-3.6-1.4c-1.6-0.2-3.1,0.4-4.1,1.6c-0.7,1-1.3,2.1-1.8,3.3c-1.2,3.2-2.4,6.4-3.5,9.6c-1,2.7-1.9,5.3-2.9,8
		C111.4,55.7,110.2,58.9,109,62z M207.3,65.4c2.9,0,5.8,0,8.7,0c1.4,0,2.8-0.2,4.1-0.7c1-0.4,1.8-1.1,2.1-2.2
		c0.6-1.8,0.2-3.6-0.1-5.4c-0.4-2.1-1.2-4.1-2.2-5.9c-1.1-2-2.7-3.7-4.4-5.2c-1.9-1.6-4.2-2.7-6.6-3.3c-1.6-0.3-3.2-0.6-4.8-0.7
		c-0.9,0-1.9,0.1-2.8,0.3c-3.1,0.5-6,1.9-8.4,4c-1.5,1.3-2.8,2.9-3.9,4.6c-1.8,3-2.7,6.3-2.8,9.7c0,1.7,0.1,3.5,0.3,5.2
		c0.3,2.2,0.9,4.3,2,6.2c1.3,2.4,3.2,4.5,5.5,6c2.9,1.9,6.2,3,9.7,3.3c2.8,0.2,5.5-0.1,8.2-0.9c2.9-0.9,5.7-2.4,8.1-4.2
		c1.1-0.8,1.8-2.1,1.8-3.4c0-1-0.4-2-1-2.8c-1-1.7-3.2-2.4-5-1.5c-1.6,0.7-3.2,1.5-4.7,2.3c-2.5,1.2-5.2,1.5-7.9,0.9
		c-2.6-0.4-4.8-2.1-5.9-4.5c-0.5-1.1-0.4-1.8,1-2.1c0.2,0,0.3,0,0.5,0L207.3,65.4z M39.3,30.5c-0.2,0-0.5,0-0.7,0
		c-2,0.5-3.8,1.4-5.3,2.7c-2.3,2-3.2,5.2-2.2,8.2c0.6,1.9,1.3,3.8,2.2,5.7c1.6,3.6,3.6,7.1,6,10.3c1.5,2,3,3.9,4.6,5.7
		c1.2,1.3,2.4,2.6,3.8,3.8c1.7,1.6,3.5,3.1,5.3,4.6c3.2,2.4,6.6,4.5,10.2,6.3c1.5,0.8,3.1,1.6,4.7,2.2c1.6,0.8,3.5,1,5.2,0.5
		c3.3-1.1,6-3.6,7.5-6.8c0.9-1.7,0.5-3.8-1-5c-1.5-1.2-3-2.5-4.5-3.6c-1.5-1.1-3-2.1-4.7-3c-1.4-0.8-3.2-0.8-4.6,0.1
		c-1,0.6-1.8,1.5-2.3,2.4c-0.7,1.4-2.4,2-3.8,1.5c-0.9-0.3-1.9-0.7-2.7-1.2c-3.2-1.6-6-3.9-8.2-6.8c-1.3-1.6-2.3-3.4-3-5.4
		c-0.7-1.9-0.1-4,1.6-5.1c0.8-0.5,1.5-1.1,2.1-1.8c0.7-0.7,1-1.8,0.7-2.8c-0.3-1.1-0.8-2.1-1.3-3.1c-1.6-3-3.8-5.8-6.2-8.1
		C41.6,31,40.5,30.5,39.3,30.5L39.3,30.5z M225.4,61.7c0,4.3,0,8.6,0,12.8c0,0.7,0.1,1.4,0.2,2.1c0.2,1.3,0.9,2.4,2,3.2
		c1.2,0.8,2.8,1.1,4.2,0.8c1.6-0.2,2.9-1.3,3.5-2.8c0.6-1.5,0.9-3.2,0.9-4.8c0.1-2.8,0-5.6-0.3-8.4c-0.1-1.9,0.1-3.9,0.6-5.7
		c0.6-2,1.8-3.7,3.4-4.9c1.5-1.2,3.3-2,5.1-2.4c1.5-0.2,2.6-1.3,2.8-2.8c0.1-0.6,0.1-1.2,0.1-1.8c-0.1-1.4-0.7-2.6-1.8-3.5
		c-2.2-1.5-5-1.5-7.2-0.1c-0.7,0.4-1.3,0.9-1.9,1.5c-0.7,0.6-1.1,0.6-1.7,0c-0.1-0.1-0.2-0.2-0.3-0.3c-0.6-1-1.7-1.7-2.9-2
		c-0.9-0.2-1.8-0.1-2.6,0.1c-1.9,0.4-3.4,1.8-3.9,3.6c-0.2,0.7-0.3,1.5-0.3,2.2C225.4,53,225.4,57.3,225.4,61.7z M143.5,63
		c0-4.1,0-8.1,0-12.2c0-0.7-0.1-1.4-0.2-2.1c-0.2-1.5-1.3-2.7-2.7-3.2c-1.2-0.4-2.4-0.5-3.6-0.2c-0.9,0.1-1.8,0.5-2.4,1.2
		c-0.9,1-1.4,2.4-1.4,3.8c0,8.4,0,16.9,0,25.3c0,0.5,0,1.1,0.1,1.6c0.2,1.6,1.2,3,2.6,3.6c1,0.4,2.1,0.6,3.2,0.4
		c1.3-0.2,2.5-0.9,3.3-1.9c0.7-1.1,1.1-2.4,1-3.7C143.6,71.4,143.5,67.2,143.5,63z M80.2,52.3L80.2,52.3c0-0.9-0.1-1.8-0.2-2.7
		c-0.2-2-0.8-3.9-1.6-5.7c-1.6-3.6-4.1-6.8-7.2-9.2c-1.9-1.5-4-2.7-6.3-3.6c-1.6-0.6-3.2-1-4.9-1.2c-1.1-0.1-2.3-0.2-3.4-0.2
		c-0.8,0-1.3,0.4-1.3,1.1c0,1,0.3,1.4,1.2,1.5c0.5,0,0.9,0.2,1.4,0.2c2.6,0.4,5.2,1,7.7,2.1c5,1.9,8.8,6,10.4,11
		c0.6,1.8,1,3.7,1.4,5.6c0.1,0.7,0.2,1.5,0.2,2.2c0,0.5,0,1,0,1.5s0.5,1,1.3,1s1.3-0.3,1.4-0.9C80.2,54,80.2,53.1,80.2,52.3z
		 M138.5,41.7c2.9,0.3,5.4-1.9,5.7-4.8c0-0.3,0-0.5,0-0.8c0.1-3.1-2.3-5.8-5.5-5.9c-0.1,0-0.2,0-0.3,0c-2.9-0.1-5.4,2.8-5.5,5.7
		c-0.2,3,2.1,5.7,5.2,5.8C138.3,41.7,138.4,41.7,138.5,41.7L138.5,41.7z M58.5,35.7c-1,0-1.5,0.4-1.6,1c-0.1,1.1,0.1,1.5,1.1,1.7
		c1.8,0.5,3.7,0.8,5.5,1.4c1.7,0.5,3.2,1.5,4.4,2.7c0.8,0.9,1.5,1.9,1.9,3c0.8,1.9,1.3,4,1.5,6.1c0.1,1,0.4,1.5,1.1,1.7
		s1.7-0.2,1.7-0.7c0.1-0.8,0.1-1.6,0.1-2.5c-0.1-0.7-0.2-1.4-0.3-2.1c-0.6-3.2-2.3-6-4.8-8.1c-1.9-1.7-4.1-2.9-6.5-3.5
		C61.1,36.2,59.7,35.9,58.5,35.7L58.5,35.7z M68.3,49.8c0-1.4-0.4-2.8-1.2-4c-1.8-2.6-4.2-4.2-7.6-3.7c-0.6,0.1-0.8,0.6-0.9,1.1
		c-0.2,0.5,0.1,1,0.5,1.1c0.5,0.2,0.9,0.3,1.4,0.4c1.3,0.2,2.4,0.7,3.4,1.6c0.9,1.1,1.5,2.4,1.5,3.8c0,0.6,0.4,1.1,0.9,1.4
		c0.5,0.3,1.1,0.2,1.4-0.2C68.2,51,68.4,50.4,68.3,49.8z"/>
	<path class="st0" d="M173.8,62c0.1,2.4-0.6,4.8-2,6.9c-1,1.5-2.5,2.5-4.3,2.8c-1.9,0.4-4-0.1-5.5-1.4c-2-1.7-3.2-4-3.5-6.6
		c-0.2-0.9-0.2-1.8-0.2-2.7c0-2.7,1-5.3,2.9-7.3c2.4-2.4,6.2-2.6,8.9-0.5c1.9,1.5,3.1,3.7,3.5,6.2C173.6,60.2,173.7,61.1,173.8,62z"
		/>
	<path class="st0" d="M196.9,56.8c0-1,0.4-2,1.2-2.7c0.8-0.9,1.7-1.7,2.7-2.3c1.3-0.8,2.9-1,4.4-0.7c1.9,0.4,3.7,1.4,5,2.8
		c0.9,0.9,1.3,2.2,1.1,3.5c-0.2,0.9-1.1,1.3-2.1,1.2s-2.1-0.1-3.2-0.1c-0.7,0-1.4-0.1-2.2-0.1c-1.5,0.1-3,0.2-4.6,0.3
		C197.9,58.8,196.8,58.6,196.9,56.8z"/>
</g>
</svg>
